<svg width="61" height="60" viewBox="0 0 61 60" fill="none" xmlns="http://www.w3.org/2000/svg">
<path d="M30.0029 32.5V49.6875L52.0342 43.5938V26.7188L30.0029 32.5Z" fill="#6573F3"/>
<path d="M30.0029 17.5V32.5M30.0029 32.5V49.6875L52.0342 43.5938V26.7188L30.0029 32.5Z" stroke="black" stroke-width="1.7" stroke-linecap="round" stroke-linejoin="round"/>
<path d="M7.50293 11.2857C7.50293 10.6336 8.11704 10.156 8.74908 10.3165L29.0183 15.4642C29.6645 15.6283 30.3414 15.6283 30.9875 15.4642L51.2568 10.3165C51.8888 10.156 52.5029 10.6336 52.5029 11.2857V42.7302C52.5029 43.6451 51.882 44.4434 50.9952 44.6686L30.9875 49.7499C30.3414 49.914 29.6645 49.914 29.0183 49.7499L9.01062 44.6686C8.12382 44.4434 7.50293 43.6451 7.50293 42.7302V11.2857Z" stroke="black" stroke-width="1.7" stroke-linejoin="round"/>
</svg>
