<svg width="36" height="36" viewBox="0 0 36 36" fill="none" xmlns="http://www.w3.org/2000/svg">
<path fill-rule="evenodd" clip-rule="evenodd" d="M10.2 5.4L11.1747 3.20685C12.0414 1.25676 13.9753 0 16.1093 0H19.8907C22.0247 0 23.9586 1.25676 24.8253 3.20685L25.8 5.4H30.6C33.5823 5.4 36 7.81766 36 10.8V30.6C36 33.5823 33.5823 36 30.6 36H5.4C2.41766 36 0 33.5823 0 30.6V10.8C0 7.81766 2.41766 5.4 5.4 5.4H10.2ZM16.1093 2.7H19.8907C20.9577 2.7 21.9246 3.32838 22.358 4.30343L22.8453 5.4H13.1547L13.642 4.30343C14.0754 3.32838 15.0423 2.7 16.1093 2.7ZM5.4 8.1C3.90883 8.1 2.7 9.30883 2.7 10.8V30.6C2.7 32.0912 3.90883 33.3 5.4 33.3H30.6C32.0912 33.3 33.3 32.0912 33.3 30.6V10.8C33.3 9.30883 32.0912 8.1 30.6 8.1H5.4Z" fill="black"/>
<path fill-rule="evenodd" clip-rule="evenodd" d="M22.9184 21.6H30.6C33.5823 21.6 36 19.1823 36 16.2V10.8C36 7.81766 33.5823 5.4 30.6 5.4H5.4C2.41766 5.4 0 7.81766 0 10.8V16.2C0 19.1823 2.41766 21.6 5.4 21.6H13.0816C13.7041 22.676 14.8675 23.4 16.2 23.4H19.8C21.1325 23.4 22.2959 22.676 22.9184 21.6ZM30.6 8.1H5.4C3.90883 8.1 2.7 9.30883 2.7 10.8V16.2C2.7 17.6912 3.90883 18.9 5.4 18.9H12.7134C13.1131 17.3473 14.5225 16.2 16.2 16.2H19.8C21.4775 16.2 22.8869 17.3473 23.2866 18.9H30.6C32.0912 18.9 33.3 17.6912 33.3 16.2V10.8C33.3 9.30883 32.0912 8.1 30.6 8.1ZM16.2 18.9H19.8C20.2971 18.9 20.7 19.3029 20.7 19.8C20.7 20.2971 20.2971 20.7 19.8 20.7H16.2C15.7029 20.7 15.3 20.2971 15.3 19.8C15.3 19.3029 15.7029 18.9 16.2 18.9Z" fill="black"/>
</svg>
