<svg width="40" height="48" viewBox="0 0 40 48" fill="none" xmlns="http://www.w3.org/2000/svg">
<path d="M38.0029 19.5C38.0029 26.25 34.4029 32.1 29.0029 35.025C29.0029 35.025 28.4404 40.875 27.8779 43.125C26.7529 47.625 13.2529 47.625 12.1279 43.125C11.5637 40.8682 11.0029 35.025 11.0029 35.025C5.60293 32.1 2.00293 26.25 2.00293 19.5C2.00293 9.6 10.1029 1.5 20.0029 1.5C29.9029 1.5 38.0029 9.6 38.0029 19.5Z" stroke="#353E50" stroke-width="3" stroke-miterlimit="10" stroke-linecap="round" stroke-linejoin="round"/>
<path d="M26.7529 38.625C21.6904 38.625 20.0029 38.625 13.2529 38.625" stroke="#353E50" stroke-width="3" stroke-miterlimit="10" stroke-linecap="round" stroke-linejoin="round"/>
<path d="M21.5029 12.75L15.5029 19.5H24.5029L18.5029 26.25" stroke="#353E50" stroke-width="3" stroke-linecap="round" stroke-linejoin="round"/>
</svg>
