<svg width="61" height="60" viewBox="0 0 61 60" fill="none" xmlns="http://www.w3.org/2000/svg">
<path d="M7.50293 23.875C7.50293 10 12.5029 7.5 30.0029 7.5C47.5029 7.5 52.5029 10 52.5029 30C52.5029 47.5 50.0029 52.5 35.8029 52.5" stroke="black" stroke-width="1.7" stroke-linecap="round" stroke-linejoin="round"/>
<path d="M7.50293 43.75C7.50293 40.25 7.93071 38.0722 9.25293 36.75C10.5752 35.4278 12.7529 35 16.2529 35C19.7529 35 21.9307 35.4472 23.2529 36.75C24.5752 38.0528 25.0029 40.25 25.0029 43.75C25.0029 47.25 24.5557 49.4278 23.2529 50.75C21.9502 52.0722 19.7529 52.5 16.2529 52.5C12.7529 52.5 10.7113 52.0917 9.44737 50.8667C8.18349 49.6417 7.50293 47.3667 7.50293 43.75Z" fill="#6573F3" stroke="black" stroke-width="1.7" stroke-linecap="round" stroke-linejoin="round"/>
</svg>
