<svg width="49" height="52" viewBox="0 0 49 52" fill="none" xmlns="http://www.w3.org/2000/svg">
<path d="M24.4497 51.1449C37.8816 51.1449 48.7704 39.6957 48.7704 25.5725C48.7704 11.4492 37.8816 0 24.4497 0C11.0177 0 0.128906 11.4492 0.128906 25.5725C0.128906 39.6957 11.0177 51.1449 24.4497 51.1449Z" fill="white"/>
<path d="M29.7528 19.6143C29.0927 19.6143 28.5576 20.1769 28.5576 20.871C28.5576 21.565 29.0927 22.1283 29.7528 22.1283C30.4129 22.1283 30.9486 21.5656 30.9486 20.871C30.9486 20.1763 30.4135 19.6143 29.7528 19.6143Z" fill="black"/>
<path d="M24.4372 21.2266C21.6679 21.2266 19.415 23.5954 19.415 26.5066C19.415 29.4178 21.6679 31.7867 24.4372 31.7867C27.2065 31.7867 29.4588 29.4178 29.4588 26.5066C29.4588 23.5954 27.2059 21.2266 24.4372 21.2266ZM24.4372 29.8891C22.6632 29.8891 21.2203 28.372 21.2203 26.5066C21.2203 24.6413 22.6632 23.1242 24.4372 23.1242C26.2112 23.1242 27.6541 24.6413 27.6541 26.5066C27.6541 28.372 26.2112 29.8891 24.4372 29.8891Z" fill="black"/>
<path d="M28.4243 37.2267H20.283C16.9053 37.2267 14.1582 34.3376 14.1582 30.7867V22.2257C14.1582 18.6743 16.9059 15.7852 20.283 15.7852H28.4243C31.8014 15.7852 34.5497 18.6743 34.5497 22.2257V30.7861C34.5497 34.337 31.8014 37.2261 28.4243 37.2261V37.2267ZM20.283 17.8028C17.963 17.8028 16.0765 19.787 16.0765 22.2257V30.7861C16.0765 33.2255 17.9636 35.2091 20.283 35.2091H28.4243C30.7443 35.2091 32.6314 33.2249 32.6314 30.7861V22.2257C32.6314 19.7864 30.7443 17.8028 28.4243 17.8028H20.283Z" fill="black"/>
</svg>
