<svg width="49" height="52" viewBox="0 0 49 52" fill="none" xmlns="http://www.w3.org/2000/svg">
<path d="M24.3208 51.1449C37.7527 51.1449 48.6415 39.6957 48.6415 25.5725C48.6415 11.4492 37.7527 0 24.3208 0C10.8888 0 0 11.4492 0 25.5725C0 39.6957 10.8888 51.1449 24.3208 51.1449Z" fill="white"/>
<path d="M15.3558 21.6043H19.6753V35.0786H15.3558V21.6043ZM17.5163 14.9082C18.8974 14.9082 20.017 15.9962 20.017 17.3345C20.017 18.6729 18.8974 19.7651 17.5163 19.7651C16.1352 19.7651 15.0127 18.675 15.0127 17.3345C15.0127 15.994 16.1316 14.9082 17.5163 14.9082Z" fill="black"/>
<path d="M22.5195 21.3854H26.1109V23.2587H26.1603C26.6611 22.1812 27.8823 21.0469 29.7061 21.0469C33.4968 21.0469 34.1962 23.8805 34.1962 27.5688V35.0784H30.4543V28.4214C30.4543 26.832 30.4271 24.7905 28.5084 24.7905C26.5897 24.7905 26.2621 26.5201 26.2621 28.3056V35.0784H22.5195V21.3862V21.3854Z" fill="black"/>
</svg>
