<svg width="40" height="36" viewBox="0 0 40 36" fill="none" xmlns="http://www.w3.org/2000/svg">
<path d="M32.4154 23.8564C32.591 24.1268 32.845 24.3378 33.138 24.4768C35.3771 25.5397 36.9231 27.8026 36.9231 30.4225V34.4789C36.9231 35.319 37.6119 36 38.4615 36C39.3112 36 40 35.319 40 34.4789V30.4225C40 25.1019 35.6376 20.7887 30.2564 20.7887C30.0335 20.7887 29.933 21.0731 30.1016 21.2174C30.9944 21.9814 31.7749 22.8702 32.4154 23.8564Z" fill="black"/>
<path fill-rule="evenodd" clip-rule="evenodd" d="M9.74359 23.831C6.06169 23.831 3.07692 26.7821 3.07692 30.4225V34.4789C3.07692 35.319 2.38813 36 1.53846 36C0.688793 36 0 35.319 0 34.4789V30.4225C0 25.1019 4.36235 20.7887 9.74359 20.7887H22.0513C27.4325 20.7887 31.7949 25.1019 31.7949 30.4225V34.4789C31.7949 35.319 31.1061 36 30.2564 36C29.4067 36 28.718 35.319 28.718 34.4789V30.4225C28.718 26.7821 25.7332 23.831 22.0513 23.831H9.74359Z" fill="black"/>
<path d="M25.8881 13.2997C26.0706 12.9567 26.3606 12.6829 26.6984 12.4864C28.2137 11.6054 29.2307 9.97645 29.2307 8.11268C29.2307 6.24891 28.2137 4.62 26.6984 3.73892C26.3606 3.54248 26.0706 3.26861 25.8881 2.92568C25.3782 1.96754 24.7314 1.09169 23.9735 0.323569C23.8551 0.203577 23.9329 0 24.1025 0C28.6341 0 32.3076 3.63217 32.3076 8.11268C32.3076 12.5932 28.6341 16.2254 24.1025 16.2254C23.9329 16.2254 23.8551 16.0218 23.9735 15.9018C24.7314 15.1337 25.3782 14.2578 25.8881 13.2997Z" fill="black"/>
<path fill-rule="evenodd" clip-rule="evenodd" d="M15.8974 13.1831C18.7297 13.1831 21.0256 10.913 21.0256 8.11268C21.0256 5.31236 18.7297 3.04225 15.8974 3.04225C13.0652 3.04225 10.7692 5.31236 10.7692 8.11268C10.7692 10.913 13.0652 13.1831 15.8974 13.1831ZM15.8974 16.2254C20.429 16.2254 24.1026 12.5932 24.1026 8.11268C24.1026 3.63217 20.429 0 15.8974 0C11.3659 0 7.69231 3.63217 7.69231 8.11268C7.69231 12.5932 11.3659 16.2254 15.8974 16.2254Z" fill="black"/>
</svg>
