<svg width="61" height="60" viewBox="0 0 61 60" fill="none" xmlns="http://www.w3.org/2000/svg">
<path d="M12.5029 7.5H37.5029C38.829 7.5 40.1008 8.02678 41.0385 8.96447C41.9761 9.90215 42.5029 11.1739 42.5029 12.5V52.5H12.5029C11.1768 52.5 9.90508 51.9732 8.9674 51.0355C8.02971 50.0979 7.50293 48.8261 7.50293 47.5V12.5C7.50293 11.1739 8.02971 9.90215 8.9674 8.96447C9.90508 8.02678 11.1768 7.5 12.5029 7.5V7.5Z" stroke="black" stroke-width="1.7" stroke-linecap="round" stroke-linejoin="round"/>
<path d="M42.5029 30H52.5029V47.5C52.5029 48.8261 51.9761 50.0979 51.0385 51.0355C50.1008 51.9732 48.829 52.5 47.5029 52.5H42.5029V30Z" fill="#6573F3" stroke="black" stroke-width="1.7" stroke-linecap="round" stroke-linejoin="round"/>
<path d="M17.5029 20H32.5029" stroke="black" stroke-width="1.7" stroke-linecap="round" stroke-linejoin="round"/>
<path d="M17.5029 30H32.5029" stroke="black" stroke-width="1.7" stroke-linecap="round" stroke-linejoin="round"/>
<path d="M17.5029 40H25.0029" stroke="black" stroke-width="1.7" stroke-linecap="round" stroke-linejoin="round"/>
</svg>
