<svg width="36" height="36" viewBox="0 0 36 36" fill="none" xmlns="http://www.w3.org/2000/svg">
<path d="M34.4571 13.3714C33.605 13.3714 32.9143 12.6807 32.9143 11.8286V5.26776L5.26776 32.9143H11.8286C12.6807 32.9143 13.3714 33.605 13.3714 34.4571C13.3714 35.3092 12.6807 36 11.8286 36H3.6C1.61178 36 0 34.3882 0 32.4V24.1714C0 23.3193 0.690761 22.6286 1.54286 22.6286C2.39495 22.6286 3.08571 23.3193 3.08571 24.1714V30.7325L30.7325 3.08572L24.1714 3.08571C23.3193 3.08571 22.6286 2.39495 22.6286 1.54286C22.6286 0.69076 23.3193 0 24.1714 0H32.4C34.3882 0 36 1.61178 36 3.6V11.8286C36 12.6807 35.3092 13.3714 34.4571 13.3714Z" fill="black"/>
<path fill-rule="evenodd" clip-rule="evenodd" d="M0 3.6C0 1.61178 1.61177 9.80922e-07 3.6 9.80922e-07H11.8286C12.6807 9.80922e-07 13.3714 0.690762 13.3714 1.54286C13.3714 2.39495 12.6807 3.08572 11.8286 3.08572H3.6C3.31597 3.08572 3.08571 3.31597 3.08571 3.6V11.8286C3.08571 12.6807 2.39495 13.3714 1.54286 13.3714C0.690761 13.3714 0 12.6807 0 11.8286V3.6Z" fill="black"/>
<path fill-rule="evenodd" clip-rule="evenodd" d="M36 32.4C36 34.3882 34.3882 36 32.4 36H24.1714C23.3193 36 22.6286 35.3092 22.6286 34.4571C22.6286 33.605 23.3193 32.9143 24.1714 32.9143H32.4C32.684 32.9143 32.9143 32.684 32.9143 32.4V24.1714C32.9143 23.3193 33.605 22.6286 34.4571 22.6286C35.3092 22.6286 36 23.3193 36 24.1714V32.4Z" fill="black"/>
</svg>
