<svg width="49" height="52" viewBox="0 0 49 52" fill="none" xmlns="http://www.w3.org/2000/svg">
<path d="M24.3852 51.1449C37.8172 51.1449 48.706 39.6957 48.706 25.5725C48.706 11.4492 37.8172 0 24.3852 0C10.9532 0 0.0644531 11.4492 0.0644531 25.5725C0.0644531 39.6957 10.9532 51.1449 24.3852 51.1449Z" fill="white"/>
<path d="M35.0082 20.6234C34.3463 20.945 33.6139 21.14 32.8995 21.2687C33.2386 21.2077 33.7362 20.549 33.9367 20.2823C34.2414 19.8763 34.4943 19.4126 34.6366 18.9127C34.6548 18.8739 34.6685 18.825 34.6317 18.7948C34.5861 18.7754 34.5561 18.7854 34.5199 18.8048C33.7225 19.2632 32.8976 19.5955 32.0197 19.8314C31.9473 19.8508 31.8929 19.8314 31.8474 19.7825C31.7749 19.694 31.7062 19.6109 31.6288 19.5426C31.2598 19.2055 30.8639 18.9415 30.4174 18.7466C29.8311 18.4906 29.1911 18.3814 28.5604 18.4256C27.9466 18.4685 27.3434 18.6541 26.7983 18.9596C26.2519 19.2659 25.7649 19.692 25.3765 20.2053C24.975 20.7366 24.679 21.3645 24.5273 22.0298C24.3811 22.6718 24.393 23.307 24.4823 23.9563C24.496 24.0642 24.4867 24.0782 24.3961 24.0642C20.9624 23.516 18.1163 22.1974 15.806 19.3717C15.7054 19.2491 15.6511 19.2491 15.5687 19.3811C14.5577 21.0073 15.0479 23.6199 16.3111 24.9044C16.4797 25.0759 16.6527 25.2468 16.8394 25.4029C16.7713 25.4177 15.9309 25.3198 15.1815 24.9044C15.081 24.8367 15.0311 24.8756 15.0217 24.9975C15.0123 25.1731 15.0267 25.3353 15.0492 25.5256C15.2434 27.1739 16.3074 28.699 17.7641 29.294C17.9371 29.3724 18.1282 29.4407 18.3149 29.4749C17.9827 29.5533 17.6411 29.6089 16.6889 29.5292C16.5703 29.505 16.5253 29.568 16.5703 29.6906C17.2858 31.7832 18.83 32.4057 19.9865 32.7602C20.1413 32.789 20.2962 32.789 20.4517 32.8285C20.4423 32.8433 20.4329 32.8433 20.4242 32.858C20.0408 33.4859 18.7108 33.9529 18.0913 34.1847C16.9649 34.6075 15.7385 34.7972 14.5484 34.6712C14.3579 34.641 14.318 34.6437 14.2661 34.6712C14.2137 34.706 14.2593 34.755 14.3205 34.8079C14.5621 34.9794 14.8081 35.1309 15.0585 35.2776C15.8147 35.7078 16.6027 36.0502 17.427 36.2941C21.683 37.5551 26.4773 36.6284 29.6737 33.2212C32.1833 30.5456 33.0631 26.8556 33.0631 23.1609C33.0631 23.0162 33.2223 22.9364 33.3172 22.8601C33.9704 22.3334 34.4968 21.7035 34.9838 21C35.0931 20.8418 35.0944 20.7011 35.0944 20.6435V20.6241C35.0944 20.5651 35.0937 20.5825 35.0088 20.6241L35.0082 20.6234Z" fill="black"/>
</svg>
