<svg width="112" height="53" viewBox="0 0 112 53" fill="none" xmlns="http://www.w3.org/2000/svg">
<path d="M112 36.7289H108.509V34.5404C107.575 36.3102 105.634 37.2047 103.58 37.2047C98.8938 37.2047 96.1307 33.4176 96.1307 29.1357C96.1307 24.3591 99.4726 21.0858 103.58 21.0858C106.25 21.0858 107.874 22.5512 108.509 23.7691V21.5616H112V36.7289ZM99.6406 29.1928C99.6406 31.0768 100.947 33.8172 104.084 33.8172C106.026 33.8172 107.314 32.7706 107.986 31.3813C108.341 30.7153 108.49 29.9921 108.546 29.2309C108.565 28.5077 108.434 27.7655 108.135 27.0995C107.538 25.6722 106.175 24.4162 104.065 24.4162C101.228 24.4162 99.6406 26.795 99.6406 29.1357V29.1928ZM82.8565 16.2521H86.3477V27.3088L91.3886 21.5235H95.5893L89.5029 28.2223L95.5893 36.7099H91.5939L86.3477 29.1357V36.7099H82.8565V16.2521ZM74.6604 24.34H72.8495V21.5425H74.6604V20.6862C74.6604 16.1759 77.965 15.9095 80.4667 15.8715V18.6689C79.5893 18.6689 78.1517 18.6689 78.1517 20.8004V21.5425H80.4667V24.34H78.1517V36.7289H74.6604V24.34ZM70.7025 36.7289H67.2112V34.5404C66.2777 36.3102 64.3361 37.2047 62.2824 37.2047C57.5963 37.2047 54.8331 33.4176 54.8331 29.1357C54.8331 24.3591 58.175 21.0858 62.2824 21.0858C64.9522 21.0858 66.5764 22.5512 67.2112 23.7691V21.5616H70.7025V36.7289ZM58.3244 29.1928C58.3244 31.0768 59.6313 33.8172 62.7865 33.8172C64.7281 33.8172 66.0163 32.7706 66.6884 31.3813C67.0432 30.7153 67.1925 29.9921 67.2485 29.2309C67.2672 28.5077 67.1365 27.7655 66.8378 27.0995C66.2217 25.6722 64.8588 24.4162 62.7678 24.4162C59.9487 24.4162 58.3431 26.795 58.3431 29.1357V29.1928H58.3244ZM41.5589 16.2711H45.0502V27.3278L50.091 21.5425H54.2917L48.2054 28.2413L54.2917 36.7099H50.2964L45.0502 29.1357V36.7099H41.5403L41.5589 16.2711ZM27.6499 15.1673L27.6313 15.1293C27.2205 14.4061 26.5484 13.8732 25.7456 13.6449C24.9428 13.4165 24.084 13.5307 23.3559 13.9684C22.6091 14.4061 22.105 15.1293 21.8996 15.9476C21.6756 16.7849 21.8063 17.6603 22.217 18.4215L22.2357 18.4406C22.6651 19.2018 23.3559 19.7156 24.1214 19.925C24.8868 20.1533 25.7643 20.0582 26.5111 19.6014L26.5484 19.5824C27.2765 19.1257 27.7806 18.4215 27.9673 17.6223C28.1727 16.823 28.098 15.9476 27.6499 15.1673ZM10.063 17.6603C11.8553 17.9648 13.5169 18.8592 14.7865 20.1914H14.8051L15.3839 20.8575L18.5204 18.9734C18.1097 17.6794 18.0723 16.2901 18.4271 14.977C18.8751 13.2452 19.958 11.7038 21.5823 10.7142L21.6383 10.6761C23.1692 9.76266 24.9988 9.51526 26.7165 9.99102C28.4527 10.4858 29.9277 11.6467 30.8238 13.2452C31.7573 14.9199 31.944 16.842 31.4959 18.5548C31.0478 20.2865 29.965 21.847 28.3407 22.8176L27.9113 23.084H27.874C26.4177 23.8072 24.7748 23.9594 23.2065 23.5217C21.937 23.1601 20.7981 22.437 19.9207 21.4284L16.8028 23.2934C17.1762 24.302 17.3629 25.3867 17.3629 26.4715C17.3629 27.5943 17.1575 28.66 16.8028 29.6495L19.9207 31.5145C20.8168 30.4679 21.9557 29.7828 23.2065 29.4212C24.8681 28.9454 26.7165 29.1548 28.3407 30.1253L28.4341 30.1824C29.9463 31.1339 31.0478 32.6373 31.4772 34.3882C31.944 36.177 31.7013 38.0801 30.8051 39.6977L30.7491 39.8119C29.853 41.3724 28.3967 42.4952 26.7165 42.9899C25.0548 43.4467 23.1879 43.2564 21.5823 42.2858V42.3429C20.014 41.4104 18.8938 39.8689 18.4271 38.0801C18.091 36.767 18.1284 35.3777 18.5204 34.0837L15.3839 32.1996L14.8051 32.8467V32.8657C13.5543 34.1788 11.9113 35.0732 10.0817 35.3777V39.1268C11.3699 39.4122 12.5461 40.0783 13.4609 41.0298V41.0488C14.6931 42.3048 15.4399 44.0747 15.4399 45.9968C15.4399 47.8427 14.7305 49.6316 13.4609 50.9447V50.9637C12.2287 52.2197 10.5484 53 8.68145 53C6.83314 53 5.13419 52.2197 3.90198 50.9447V50.9257C2.63244 49.6126 1.92299 47.8237 1.92299 45.9777C1.92299 44.0557 2.68845 42.2858 3.90198 41.0298V41.0108C4.8168 40.0402 5.993 39.3741 7.28121 39.1077V35.3587C5.45158 35.0542 3.8273 34.1408 2.57643 32.8467L2.55776 32.8276C0.914819 31.1339 0 28.8503 0 26.4715C0 23.9975 0.970828 21.7519 2.53909 20.1343H2.55776C3.8273 18.8022 5.47024 17.9268 7.26254 17.6032V13.8732C5.993 13.5878 4.8168 12.9217 3.88331 11.9702V11.9512C2.61377 10.6381 1.90432 8.84919 1.90432 7.00323C1.90432 5.15727 2.61377 3.3684 3.88331 2.0553H3.90198C5.15286 0.742191 6.87048 0 8.66278 0C10.5298 0 12.21 0.780252 13.4422 2.0553C14.6744 3.33034 15.4212 5.08115 15.4212 7.00323C15.4212 8.84919 14.7118 10.6381 13.4422 11.9512V11.9702C12.5274 12.9027 11.3699 13.5878 10.063 13.8732V17.6603ZM11.874 23.1982C11.0525 22.3418 9.91365 21.809 8.66278 21.809C7.44924 21.809 6.29171 22.3038 5.45157 23.1982C4.6301 24.0546 4.12602 25.2154 4.12602 26.5285C4.12602 27.7846 4.59276 28.9835 5.45157 29.8779C6.27305 30.7153 7.4119 31.2481 8.66278 31.2481C9.91365 31.2481 11.0525 30.7153 11.874 29.8779C12.7328 28.9835 13.1995 27.7846 13.1995 26.5285C13.1995 25.2916 12.7141 24.0926 11.874 23.1982ZM25.7456 39.4122C26.5484 39.1838 27.2392 38.651 27.6499 37.9088L27.7059 37.7946C28.0793 37.0715 28.1727 36.2341 27.9487 35.4348C27.7433 34.6165 27.2392 33.9124 26.4924 33.4557L26.4551 33.4176C25.7456 33.018 24.9055 32.9038 24.1214 33.1321C23.3372 33.3415 22.6464 33.8743 22.217 34.6546C21.8063 35.3968 21.6943 36.2912 21.8996 37.1285C22.1237 37.9659 22.6464 38.67 23.3559 39.1077C24.1214 39.5454 24.9615 39.6215 25.7456 39.4122ZM8.66278 49.27C9.54026 49.27 10.3244 48.9084 10.8845 48.3185V48.2995C11.4446 47.7285 11.7806 46.9102 11.7806 46.0158C11.7806 45.1023 11.4446 44.3031 10.8845 43.7131C10.3244 43.1232 9.54026 42.7616 8.66278 42.7616C7.82264 42.7616 7.01984 43.1041 6.45974 43.7131H6.44107C5.84364 44.3411 5.52625 45.1594 5.52625 46.0158C5.52625 46.8722 5.84364 47.6905 6.44107 48.2995L6.45974 48.3185C7.03851 48.9275 7.82264 49.27 8.66278 49.27ZM10.8845 4.7386C10.3244 4.14865 9.54026 3.78707 8.66278 3.78707C7.82264 3.78707 7.03851 4.12962 6.45974 4.7386H6.44107C5.84364 5.34758 5.50758 6.18492 5.52625 7.04129C5.52625 7.89767 5.84364 8.73501 6.44107 9.34399L6.45974 9.36302C7.03851 9.97199 7.84131 10.3145 8.66278 10.2955C9.54026 10.2955 10.3244 9.93393 10.8845 9.36302V9.34399C11.4446 8.77307 11.7806 7.95476 11.7806 7.04129C11.7806 6.18492 11.4632 5.34758 10.8845 4.7386Z" fill="black"/>
</svg>
