<svg width="312" height="55" viewBox="0 0 312 55" fill="none" xmlns="http://www.w3.org/2000/svg">
<path d="M51.8021 13.0965C51.4954 12.1144 50.7592 11.3165 49.8389 10.8254L31.1269 1.86355C30.6361 1.61802 30.0839 1.55664 29.5931 1.55664C29.1023 1.55664 28.5501 1.55664 28.0593 1.67941L9.34732 10.7026C8.42706 11.1323 7.7522 11.9303 7.5068 12.9738L2.90548 33.1686C2.72143 34.2121 2.96683 35.2556 3.58034 36.115L16.5254 52.1358C17.2616 52.8724 18.3045 53.3634 19.3475 53.4248H39.9614C41.0657 53.5476 42.1087 53.0565 42.7835 52.1358L55.7286 36.115C56.3421 35.2556 56.5875 34.2121 56.4648 33.1686L51.8021 13.0965Z" fill="black"/>
<path d="M48.9182 32.3701C48.8568 32.3701 48.7955 32.3701 48.7955 32.3088C48.7955 32.2474 48.6728 32.2474 48.5501 32.2474C48.3047 32.186 48.0593 32.186 47.8139 32.186C47.6912 32.186 47.5685 32.186 47.4458 32.1246H47.3844C46.7096 32.0632 45.9734 31.9405 45.2985 31.7563C45.1144 31.6949 44.9304 31.5108 44.869 31.3266C44.9304 31.3266 44.869 31.3266 44.869 31.3266L44.3782 31.2039C44.6236 29.4238 44.5009 27.5823 44.1328 25.8022C43.7034 24.0221 42.9672 22.3034 41.9855 20.7689L42.3537 20.4006V20.3392C42.3537 20.155 42.415 19.9095 42.5377 19.7867C43.0899 19.2957 43.642 18.9274 44.2555 18.5591C44.3782 18.4977 44.5009 18.4363 44.6236 18.3749C44.869 18.2522 45.0531 18.1294 45.2985 18.0066C45.3598 17.9453 45.4212 17.9453 45.4826 17.8839C45.5439 17.8225 45.4826 17.8225 45.4826 17.7611C46.0347 17.3314 46.1574 16.5948 45.728 16.0424C45.5439 15.7969 45.1758 15.6127 44.869 15.6127C44.5623 15.6127 44.2555 15.7355 44.0101 15.9196L43.9488 15.981C43.8874 16.0424 43.8261 16.1038 43.7647 16.1038C43.5807 16.2879 43.3966 16.4721 43.2739 16.6562C43.2126 16.779 43.0899 16.8404 43.0285 16.9018C42.5991 17.3928 42.0469 17.8839 41.4947 18.2522C41.372 18.3136 41.2493 18.3749 41.1266 18.3749C41.0653 18.3749 40.9426 18.3749 40.8812 18.3136H40.8199L40.3291 18.6205C39.8383 18.1294 39.2861 17.6383 38.7953 17.1473C36.5253 15.3672 33.7032 14.2623 30.8197 13.9554L30.7583 13.4643V13.5257C30.5743 13.403 30.5129 13.2188 30.4516 13.0347C30.4516 12.3595 30.4516 11.6842 30.5743 10.9477V10.8863C30.5743 10.7635 30.6356 10.6407 30.6356 10.518C30.697 10.2725 30.697 10.0269 30.7583 9.78139V9.4131C30.8197 8.79927 30.3289 8.18545 29.7154 8.12407C29.3473 8.06268 28.9792 8.24683 28.6724 8.55374C28.427 8.79927 28.3043 9.10619 28.3043 9.4131V9.72001C28.3043 9.96554 28.3657 10.2111 28.427 10.4566C28.4884 10.5794 28.4884 10.7021 28.4884 10.8249V10.8863C28.6111 11.5615 28.6111 12.2367 28.6111 12.9733C28.5497 13.1574 28.4884 13.3416 28.3043 13.4643V13.5871L28.243 14.0782C27.5681 14.1395 26.8932 14.2623 26.157 14.3851C23.2735 14.9989 20.6354 16.5335 18.6109 18.6819L18.2428 18.4363H18.1814C18.1201 18.4363 18.0587 18.4977 17.936 18.4977C17.8133 18.4977 17.6906 18.4363 17.5679 18.3749C17.0157 17.9453 16.4636 17.4542 16.0341 16.9631C15.9728 16.8404 15.8501 16.779 15.7887 16.7176C15.6047 16.5335 15.482 16.3493 15.2979 16.1652C15.2366 16.1038 15.1752 16.1038 15.1139 16.0424C15.0525 15.981 15.0525 15.981 15.0525 15.981C14.8071 15.7969 14.5004 15.6741 14.1936 15.6741C13.8255 15.6741 13.5188 15.7969 13.3347 16.1038C12.9666 16.6562 13.0893 17.3928 13.5801 17.8225C13.6415 17.8225 13.6415 17.8839 13.6415 17.8839C13.6415 17.8839 13.7642 18.0066 13.8255 18.0066C14.0096 18.1294 14.255 18.2522 14.5004 18.3749C14.6231 18.4363 14.7458 18.4977 14.8685 18.5591C15.482 18.9274 16.0955 19.2957 16.5863 19.7867C16.709 19.9095 16.8317 20.155 16.7703 20.3392V20.2778L17.1385 20.6461C17.0771 20.7689 17.0157 20.8302 16.9544 20.953C15.0525 23.9607 14.255 27.5209 14.8071 31.0197L14.3163 31.1425C14.3163 31.2039 14.255 31.2039 14.255 31.2039C14.1936 31.388 14.0096 31.5108 13.8255 31.6336C13.1506 31.8177 12.4758 31.9405 11.7396 32.0018C11.6169 32.0018 11.4942 32.0019 11.3715 32.0632C11.1261 32.0632 10.8807 32.1246 10.6353 32.1246C10.5739 32.1246 10.5126 32.186 10.3899 32.186C10.3285 32.186 10.3285 32.186 10.2672 32.2474C9.59229 32.3701 9.16284 32.984 9.28554 33.6592C9.40824 34.2116 9.9604 34.5799 10.5126 34.5185C10.6353 34.5185 10.6966 34.5185 10.8193 34.4571C10.8807 34.4571 10.8807 34.4571 10.8807 34.3958C10.8807 34.3344 11.0647 34.3958 11.1261 34.3958C11.3715 34.3344 11.6169 34.2116 11.8009 34.1502C11.9236 34.0889 12.0463 34.0275 12.169 34.0275H12.2304C12.9052 33.7819 13.5188 33.5978 14.255 33.475H14.3163C14.5004 33.475 14.6844 33.5364 14.8071 33.6592C14.8685 33.6592 14.8685 33.7206 14.8685 33.7206L15.4206 33.6592C16.3409 36.4828 18.0587 38.9995 20.4514 40.8409C21.0036 41.2706 21.4944 41.6389 22.1079 41.9458L21.8011 42.3755C21.8011 42.4369 21.8625 42.4369 21.8625 42.4369C21.9852 42.621 21.9852 42.8665 21.9238 43.0507C21.6784 43.6645 21.3103 44.2783 20.9422 44.8308V44.8922C20.8809 45.0149 20.8195 45.0763 20.6968 45.1991C20.5741 45.3218 20.4514 45.5674 20.2673 45.8129C20.206 45.8743 20.206 45.9357 20.1446 45.9971C20.1446 45.9971 20.1446 46.0584 20.0833 46.0584C19.7765 46.6723 20.0219 47.4089 20.5741 47.7158C20.6968 47.7771 20.8809 47.8385 21.0036 47.8385C21.4944 47.8385 21.9238 47.5316 22.1692 47.1019C22.1692 47.1019 22.1692 47.0406 22.2306 47.0406C22.2306 46.9792 22.2919 46.9178 22.3533 46.8564C22.4146 46.6109 22.5373 46.4267 22.5987 46.1812L22.7214 45.8129C22.9054 45.1377 23.2122 44.5239 23.5189 43.91C23.6416 43.7259 23.8257 43.6031 24.0097 43.5418C24.0711 43.5418 24.0711 43.5418 24.0711 43.4804L24.3165 42.9893C26.0343 43.6645 27.8135 43.9714 29.654 43.9714C30.7583 43.9714 31.8627 43.8487 32.967 43.5418C33.6418 43.419 34.3167 43.1735 34.9302 42.9893L35.1756 43.419C35.237 43.419 35.237 43.419 35.237 43.4804C35.421 43.5418 35.6051 43.6645 35.7278 43.8487C36.0345 44.4625 36.3413 45.0763 36.5253 45.7515V45.8129L36.648 46.1812C36.7094 46.4267 36.7707 46.6723 36.8934 46.8564C36.9548 46.9178 36.9548 46.9792 37.0161 47.0406C37.0161 47.0406 37.0161 47.1019 37.0775 47.1019C37.3229 47.5316 37.7523 47.8385 38.2431 47.8385C38.4272 47.8385 38.5499 47.7771 38.734 47.7158C38.9794 47.593 39.2248 47.3475 39.2861 47.0406C39.3475 46.7336 39.3475 46.4267 39.2248 46.1198C39.2248 46.0584 39.1634 46.0584 39.1634 46.0584C39.1634 45.9971 39.1021 45.9357 39.0407 45.8743C38.918 45.6288 38.7953 45.4446 38.6113 45.2605C38.5499 45.1377 38.4886 45.0763 38.3658 44.9536V44.8308C37.9364 44.2783 37.6296 43.6645 37.3842 43.0507C37.3229 42.8665 37.3229 42.621 37.4456 42.4369C37.4456 42.3755 37.5069 42.3755 37.5069 42.3755L37.3229 41.8844C40.4518 39.9816 42.8445 37.0352 43.9488 33.5364L44.4396 33.5978C44.5009 33.5978 44.5009 33.5364 44.5009 33.5364C44.6236 33.4136 44.8077 33.3523 44.9917 33.3523H45.0531C45.728 33.475 46.4028 33.6592 47.0163 33.9047H47.0777C47.2004 33.9661 47.3231 34.0275 47.4458 34.0275C47.6912 34.1502 47.8752 34.273 48.1206 34.3344C48.182 34.3344 48.2433 34.3958 48.366 34.3958C48.4274 34.3958 48.4274 34.3958 48.4887 34.4571C48.6114 34.5185 48.6728 34.5185 48.7955 34.5185C49.3477 34.5185 49.8385 34.1502 50.0225 33.6592C49.9612 32.984 49.4704 32.4929 48.9182 32.3701ZM31.1878 30.4673L29.5313 31.2653L27.8749 30.4673L27.4454 28.6872L28.6111 27.214H30.4516L31.6173 28.6872L31.1878 30.4673ZM41.188 26.4774C41.4947 27.7665 41.5561 29.0555 41.4334 30.3445L35.6051 28.6872C35.0529 28.5644 34.7461 28.012 34.8689 27.4595C34.9302 27.2754 34.9916 27.1526 35.1143 27.0299L39.7156 22.8559C40.3904 23.9607 40.8812 25.1884 41.188 26.4774ZM37.875 20.5847L32.8443 24.1449C32.4148 24.3904 31.8013 24.329 31.4946 23.8994C31.3719 23.7766 31.3105 23.6538 31.3105 23.4697L30.9424 17.2701C33.6418 17.577 36.0345 18.7432 37.875 20.5847ZM26.7705 17.4542L27.9976 17.2087L27.6908 23.3469C27.6908 23.8994 27.2 24.329 26.6478 24.329C26.4638 24.329 26.3411 24.2677 26.157 24.2063L21.0649 20.5847C22.66 19.0501 24.6233 17.9453 26.7705 17.4542ZM19.2857 22.8559L23.8257 26.9071C24.2552 27.2754 24.3165 27.8892 23.9484 28.3189C23.8257 28.503 23.703 28.5644 23.4576 28.6258L17.5066 30.3445C17.3225 27.7665 17.936 25.127 19.2857 22.8559ZM18.2428 33.2295L24.3165 32.186C24.8073 32.186 25.2981 32.4929 25.3595 32.984C25.4208 33.1681 25.4208 33.4136 25.2981 33.5978L22.9668 39.245C20.8195 37.8332 19.1017 35.6848 18.2428 33.2295ZM32.1694 40.8409C31.3105 41.0251 30.4516 41.1478 29.5313 41.1478C28.243 41.1478 26.8932 40.9023 25.6662 40.534L28.6724 35.071C28.9792 34.7027 29.47 34.5799 29.8994 34.8254C30.0835 34.9482 30.2062 35.071 30.3902 35.2551L33.3351 40.5954C32.967 40.6568 32.5989 40.7182 32.1694 40.8409ZM39.6542 35.5007C38.734 36.9738 37.4456 38.2629 35.9732 39.1836L33.5805 33.4136C33.4578 32.9226 33.7032 32.4315 34.1326 32.2474C34.3167 32.186 34.5007 32.1246 34.6848 32.1246L40.8199 33.1681C40.5131 34.0275 40.145 34.8254 39.6542 35.5007Z" fill="white"/>
<path d="M300.089 39.9209C300.947 39.9823 301.868 39.8595 302.665 39.5526C303.156 39.3071 303.463 38.7546 303.402 38.2022C303.34 37.5884 302.972 37.0359 302.42 36.8518C301.5 36.2993 300.457 35.8083 299.414 35.5014C298.371 35.1331 297.451 34.7034 296.592 34.2737C295.794 33.9054 295.119 33.4143 294.444 32.8005C293.831 32.1867 293.401 31.5115 293.095 30.7135C292.726 29.7928 292.604 28.8107 292.604 27.8285C292.542 25.8029 293.463 23.8387 295.058 22.611C296.714 21.322 298.923 20.7082 301.745 20.7082C303.095 20.7082 304.506 20.8309 305.856 21.1379C306.899 21.322 307.941 21.5675 308.984 21.9358L307.819 27.1533C306.96 26.8464 306.162 26.6623 305.303 26.4167C304.322 26.1712 303.279 26.1098 302.297 26.1098C300.211 26.1098 299.168 26.6623 299.168 27.8285C299.168 28.0741 299.23 28.3196 299.291 28.5651C299.414 28.8107 299.598 28.9948 299.843 29.179C300.089 29.3631 300.457 29.5473 300.886 29.7928C301.316 30.0383 301.929 30.2838 302.665 30.5294C303.892 30.959 305.119 31.5115 306.224 32.1253C307.083 32.555 307.819 33.1074 308.432 33.844C308.984 34.3965 309.353 35.0717 309.598 35.8696C309.843 36.729 309.966 37.5884 309.966 38.4477C310.089 40.5347 309.107 42.5603 307.328 43.7266C305.61 44.8929 303.156 45.5067 299.966 45.5067C298.187 45.5681 296.469 45.3839 294.751 44.9543C293.769 44.7087 292.849 44.4018 291.929 44.0949L293.033 38.6932C294.138 39.1229 295.303 39.4912 296.469 39.7367C297.696 39.7981 298.862 39.9209 300.089 39.9209ZM266.284 33.1688C266.223 31.3273 266.591 29.4859 267.204 27.7672C267.757 26.294 268.616 25.0049 269.72 23.8387C270.763 22.7952 271.929 21.9972 273.278 21.5061C274.628 20.9537 276.039 20.7082 277.45 20.7082C280.763 20.7082 283.401 21.7517 285.303 23.7773C287.205 25.8029 288.187 28.8107 288.187 32.7391C288.187 33.1074 288.187 33.5371 288.125 34.0282C288.125 34.5192 288.064 34.8875 288.064 35.2558H273.094C273.217 36.5449 273.892 37.7725 274.996 38.5091C276.346 39.3684 277.941 39.7981 279.536 39.7367C280.702 39.7367 281.929 39.614 283.094 39.4298C284.076 39.2457 285.058 38.9388 285.978 38.5091L286.898 43.9108C286.469 44.1563 285.978 44.279 285.487 44.4632C284.812 44.6473 284.137 44.8315 283.462 44.8929C282.726 45.0156 281.99 45.1384 281.131 45.2612C280.334 45.3225 279.475 45.3839 278.616 45.3839C276.714 45.4453 274.873 45.1384 273.094 44.4632C271.622 43.9108 270.333 43.0514 269.229 41.9465C268.186 40.8416 267.45 39.4912 266.959 38.0794C266.53 36.4221 266.284 34.7648 266.284 33.1688ZM281.806 30.6521C281.806 30.0997 281.683 29.5473 281.499 28.9948C281.377 28.4424 281.07 28.0127 280.763 27.583C280.395 27.1533 279.965 26.785 279.475 26.5395C278.861 26.2326 278.248 26.1098 277.573 26.1098C276.898 26.1098 276.284 26.2326 275.671 26.5395C275.18 26.785 274.689 27.092 274.321 27.5216C273.953 27.9513 273.646 28.4424 273.462 28.9948C273.278 29.5473 273.156 30.0997 273.094 30.6521H281.806ZM248.308 15.4293L254.934 14.3858V21.2606H262.91V26.785H254.934V35.0103C254.873 36.1766 255.118 37.3428 255.671 38.3249C256.161 39.1229 257.143 39.5526 258.677 39.5526C259.413 39.5526 260.149 39.4912 260.824 39.3684C261.56 39.2457 262.235 39.0615 262.91 38.816L263.83 43.9721C262.971 44.3404 262.051 44.586 261.131 44.8315C259.965 45.077 258.738 45.1998 257.511 45.1998C255.977 45.2612 254.444 45.0156 253.032 44.4632C251.928 44.0335 250.947 43.2969 250.21 42.4376C249.474 41.5168 248.983 40.412 248.677 39.2457C248.37 37.8953 248.247 36.4835 248.308 35.1331V15.4293ZM221.498 33.1688C221.437 31.3273 221.805 29.4859 222.418 27.7672C222.971 26.294 223.829 25.0049 224.934 23.8387C225.977 22.7952 227.142 21.9972 228.492 21.5061C229.842 20.9537 231.253 20.7082 232.664 20.7082C235.977 20.7082 238.615 21.7517 240.517 23.7773C242.419 25.8029 243.4 28.8107 243.4 32.7391C243.4 33.1074 243.4 33.5371 243.339 34.0282C243.278 34.5192 243.278 34.8875 243.278 35.2558H228.247C228.369 36.5449 229.044 37.7725 230.149 38.5091C231.498 39.3684 233.093 39.7981 234.689 39.7367C235.854 39.7367 237.081 39.614 238.247 39.4298C239.229 39.2457 240.21 38.9388 241.192 38.5091L242.112 43.9108C241.683 44.1563 241.192 44.279 240.701 44.4632C240.026 44.6473 239.351 44.8315 238.676 44.8929C237.94 45.0156 237.204 45.1384 236.345 45.2612C235.547 45.3225 234.689 45.3839 233.83 45.3839C231.928 45.4453 230.087 45.1384 228.308 44.4632C226.836 43.9108 225.547 43.0514 224.443 41.9465C223.4 40.8416 222.664 39.4912 222.173 38.0794C221.682 36.4221 221.437 34.7648 221.498 33.1688ZM237.02 30.6521C237.02 30.0997 236.897 29.5473 236.713 28.9948C236.59 28.4424 236.284 28.0127 235.977 27.583C235.609 27.1533 235.179 26.785 234.689 26.5395C234.075 26.2326 233.462 26.1098 232.787 26.1098C232.112 26.1098 231.498 26.2326 230.885 26.5395C230.394 26.785 229.965 27.092 229.596 27.5216C229.228 27.9513 228.922 28.4424 228.738 28.9948C228.553 29.5473 228.431 30.0997 228.369 30.6521H237.02ZM196.344 22.0586C197.755 21.6903 199.228 21.3834 200.7 21.1379C202.541 20.8309 204.443 20.7082 206.283 20.7082C207.94 20.6468 209.596 20.9537 211.191 21.5061C212.418 21.9358 213.523 22.6724 214.32 23.6545C215.118 24.6367 215.67 25.8029 215.977 27.0306C216.345 28.4424 216.467 29.9155 216.467 31.3887V44.586H209.903V32.2481C209.903 30.0997 209.596 28.6265 209.044 27.7058C208.492 26.8464 207.449 26.3554 205.915 26.3554C205.424 26.3554 204.933 26.3554 204.381 26.4167C203.829 26.4167 203.4 26.4781 202.97 26.5395V44.586H196.344V22.0586ZM191.682 27.1533C191.068 27.0306 190.393 26.8464 189.596 26.7237C188.737 26.5395 187.878 26.4781 187.019 26.4781C186.528 26.4781 186.037 26.5395 185.485 26.6009C185.056 26.6623 184.626 26.7237 184.197 26.8464V44.7087H177.571V22.4883C178.921 21.9972 180.332 21.6289 181.743 21.322C183.522 20.8923 185.362 20.7082 187.142 20.7696C187.571 20.7696 188.001 20.8309 188.43 20.8309C188.921 20.8309 189.412 20.8923 189.964 21.0151C190.455 21.0765 190.945 21.1379 191.498 21.2606C191.927 21.322 192.356 21.4448 192.786 21.6289L191.682 27.1533ZM150.515 33.1688C150.454 31.3273 150.822 29.4859 151.435 27.7672C151.988 26.294 152.846 25.0049 153.951 23.8387C154.994 22.7952 156.159 21.9972 157.509 21.5061C158.859 20.9537 160.27 20.7082 161.681 20.7082C164.994 20.7082 167.632 21.7517 169.534 23.7773C171.436 25.8029 172.417 28.8107 172.417 32.6778C172.417 33.0461 172.417 33.4757 172.356 33.9668C172.295 34.4578 172.295 34.8261 172.295 35.1944H157.264C157.386 36.4835 158.061 37.7111 159.166 38.4477C160.515 39.3071 162.11 39.7367 163.706 39.6754C164.871 39.6754 166.098 39.5526 167.264 39.3684C168.246 39.1843 169.227 38.8774 170.147 38.5091L171.068 43.9108C170.638 44.1563 170.147 44.279 169.657 44.4632C168.982 44.6473 168.307 44.8315 167.632 44.8929C166.896 45.0156 166.16 45.1384 165.301 45.2612C164.503 45.3225 163.644 45.3839 162.785 45.3839C160.883 45.4453 159.043 45.1384 157.264 44.4632C155.791 43.9108 154.503 43.0514 153.399 41.9465C152.356 40.8416 151.619 39.4912 151.129 38.0794C150.761 36.4221 150.515 34.8261 150.515 33.1688ZM166.098 30.6521C166.098 30.0997 165.976 29.5473 165.792 28.9948C165.669 28.4424 165.362 28.0127 165.055 27.583C164.687 27.1533 164.258 26.785 163.767 26.5395C163.153 26.2326 162.54 26.1098 161.865 26.1098C161.19 26.1098 160.577 26.2326 159.963 26.5395C159.472 26.785 158.982 27.092 158.613 27.5216C158.245 27.9513 157.939 28.4424 157.755 28.9948C157.571 29.5473 157.448 30.0997 157.386 30.6521H166.098ZM139.779 32.8005C139.779 28.5038 138.184 26.4167 135.055 26.4167C134.38 26.4167 133.705 26.4781 133.03 26.6623C132.478 26.785 131.926 27.0306 131.435 27.3375V39.3684C131.742 39.4298 132.171 39.4912 132.662 39.5526C133.153 39.614 133.705 39.614 134.319 39.614C135.914 39.7367 137.447 39.0615 138.429 37.7725C139.349 36.2993 139.84 34.5806 139.779 32.8005ZM146.527 33.0461C146.527 34.7648 146.282 36.4835 145.668 38.1408C145.178 39.614 144.38 40.903 143.337 42.0079C142.233 43.1128 140.944 43.9721 139.533 44.5246C137.877 45.1384 136.159 45.3839 134.38 45.3839C133.582 45.3839 132.723 45.3225 131.864 45.2612C131.006 45.1998 130.147 45.077 129.288 45.0156C128.49 44.8929 127.693 44.7701 126.895 44.586C126.098 44.4632 125.423 44.279 124.87 44.0335V11.1939L131.496 10.1504V21.8131C132.233 21.5061 133.03 21.2606 133.828 21.0765C134.687 20.8923 135.546 20.8309 136.404 20.8309C137.938 20.8309 139.411 21.0765 140.822 21.7517C142.049 22.3041 143.153 23.1635 144.012 24.207C144.932 25.3732 145.607 26.6623 145.975 28.0741C146.343 29.6086 146.527 31.3273 146.527 33.0461ZM118.551 43.8494C117.14 44.2177 115.668 44.5246 114.195 44.7087C112.355 45.0156 110.453 45.1384 108.613 45.1384C106.895 45.1998 105.238 44.8929 103.643 44.3404C102.416 43.8494 101.373 43.1128 100.514 42.1307C99.7166 41.0872 99.1645 39.9209 98.8577 38.6319C98.4896 37.2201 98.3669 35.6855 98.3669 34.2123V21.2606H104.993V33.4757C104.993 35.6241 105.3 37.1587 105.852 38.0794C106.404 39.0002 107.447 39.4912 108.981 39.4912C109.471 39.4912 109.962 39.4912 110.514 39.4298C111.067 39.3684 111.496 39.3684 111.925 39.2457V21.2606H118.551V43.8494ZM79.9003 29.7314C80.5752 28.9948 81.1887 28.2582 81.9249 27.5216C82.5998 26.7237 83.2746 25.9871 83.9495 25.2505C84.6243 24.4525 85.2378 23.7773 85.79 23.1021C86.3421 22.4269 86.8943 21.8131 87.3238 21.322H95.1767C93.5816 23.1021 92.0478 24.8822 90.5754 26.5395C89.0416 28.1968 87.4465 29.9155 85.6673 31.6343C86.6489 32.555 87.5692 33.4757 88.4281 34.5192C89.3483 35.6241 90.2686 36.729 91.1889 37.9566C92.0478 39.1229 92.9067 40.3506 93.6429 41.5168C94.3791 42.6831 94.9926 43.788 95.4834 44.7701H87.8759C87.3851 43.9721 86.833 43.1742 86.2195 42.2534C85.6059 41.3327 84.9311 40.4119 84.3176 39.4298C83.6427 38.5091 82.9065 37.5884 82.1089 36.729C81.4341 35.931 80.6979 35.1944 79.9003 34.5806V44.8315H73.2744V11.1939L79.9003 10.1504V29.7314Z" fill="black"/>
</svg>
