<svg width="175" height="59" viewBox="0 0 175 59" fill="none" xmlns="http://www.w3.org/2000/svg">
<g clip-path="url(#clip0_427_509)">
<path d="M64.335 53.5653C59.1518 53.5653 55.0874 49.553 55.0874 44.4533C55.0874 39.3536 59.1518 35.3389 64.335 35.3389C69.5181 35.3389 73.6167 39.3536 73.6167 44.4533C73.6167 49.553 69.5156 53.5653 64.335 53.5653ZM64.335 37.788C60.6516 37.788 57.806 40.6668 57.806 44.4533C57.806 48.2399 60.6516 51.1162 64.335 51.1162C68.0183 51.1162 70.8884 48.2035 70.8884 44.4533C70.8884 40.7032 68.0428 37.788 64.335 37.788Z" fill="black"/>
<path d="M76.147 40.4385H78.6506V41.6764C79.7474 40.7275 81.1584 40.2149 82.6124 40.237C86.2763 40.237 89.1439 43.1498 89.1439 46.8514C89.1439 50.553 86.2714 53.49 82.5636 53.49C81.1656 53.4941 79.8032 53.0516 78.6775 52.2278V58.5145H76.1372L76.147 40.4385ZM78.6872 43.9726V49.7787C79.4982 50.7132 80.8465 51.2933 82.2925 51.2933C84.7839 51.2933 86.6622 49.4 86.6622 46.8756C86.6622 44.3513 84.757 42.4337 82.2925 42.4337C80.8196 42.4337 79.525 42.9896 78.6872 43.9726Z" fill="black"/>
<path d="M97.8147 53.5145C94.0043 53.5145 91.0317 50.6018 91.0317 46.8517C91.0317 43.1403 93.8773 40.2373 97.5094 40.2373C101.066 40.2373 103.758 43.1646 103.758 46.9512V47.6794H93.55C93.707 48.7143 94.2358 49.6577 95.0387 50.3351C95.8416 51.0125 96.8642 51.378 97.9173 51.364C99.1081 51.3888 100.269 50.9922 101.193 50.245L102.82 51.8373C101.402 52.9637 99.6296 53.5575 97.8147 53.5145ZM93.572 45.7909H101.244C100.863 43.8224 99.3389 42.3587 97.4581 42.3587C95.5041 42.3587 93.953 43.7472 93.572 45.7909Z" fill="black"/>
<path d="M106.171 40.4387H108.711V41.7276C109.221 41.2223 109.829 40.8251 110.498 40.5602C111.166 40.2952 111.882 40.168 112.602 40.1863C115.572 40.1863 117.656 42.2325 117.656 45.2108V53.2888H115.116V45.6331C115.116 43.6136 113.87 42.3757 111.916 42.3757C111.283 42.3545 110.655 42.4968 110.094 42.7886C109.532 43.0804 109.057 43.5119 108.714 44.0408V53.2815H106.173L106.171 40.4387Z" fill="black"/>
<path d="M120.907 48.4921C122.837 50.3587 124.815 51.2689 127.031 51.2689C129.595 51.2689 131.349 50.0553 131.349 48.3149C131.349 46.7493 130.333 45.9677 127.741 45.5381L124.769 45.0526C121.518 44.5235 119.915 43.0089 119.915 40.4578C119.915 37.38 122.507 35.3848 126.471 35.3848C129.058 35.3919 131.572 36.2335 133.635 37.7829L132.17 39.8024C130.24 38.3461 128.335 37.6324 126.354 37.6324C124.041 37.6324 122.492 38.6907 122.492 40.2563C122.492 41.6957 123.381 42.3778 125.668 42.7564L128.525 43.2055C132.284 43.8123 133.987 45.3512 133.987 48.1037C133.987 51.3587 131.141 53.5311 126.904 53.5311C125.484 53.5289 124.08 53.2464 122.772 52.7001C121.463 52.1538 120.278 51.3546 119.283 50.349L120.907 48.4921Z" fill="black"/>
<path d="M136.146 35.6184L138.686 35.0625V41.7278C139.195 41.2231 139.802 40.8263 140.47 40.5614C141.138 40.2964 141.853 40.1689 142.572 40.1865C145.545 40.1865 147.628 42.2327 147.628 45.211V53.289H145.088V45.6333C145.088 43.6138 143.843 42.3759 141.886 42.3759C141.253 42.3551 140.626 42.4976 140.065 42.7894C139.505 43.0812 139.029 43.5124 138.686 44.041V53.2817H136.146V35.6184Z" fill="black"/>
<path d="M150.269 36.8024C150.268 36.5985 150.306 36.3963 150.383 36.2074C150.461 36.0184 150.574 35.8464 150.718 35.7013C150.863 35.5561 151.034 35.4405 151.223 35.3613C151.412 35.282 151.615 35.2405 151.82 35.2393C152.227 35.2552 152.612 35.427 152.894 35.7186C153.176 36.0102 153.334 36.3991 153.334 36.8036C153.334 37.2082 153.176 37.597 152.894 37.8887C152.612 38.1803 152.227 38.3521 151.82 38.368C151.615 38.3668 151.412 38.3252 151.222 38.2458C151.033 38.1664 150.862 38.0506 150.718 37.9052C150.574 37.7597 150.46 37.5874 150.383 37.3982C150.306 37.209 150.267 37.0065 150.269 36.8024ZM153.09 53.2885H150.55V40.4385H153.09V53.2885Z" fill="black"/>
<path d="M158.017 40.4385V38.4966C158.017 35.8266 159.566 34.3581 162.414 34.3581C163.031 34.3493 163.647 34.4252 164.243 34.5838V36.7805C163.726 36.62 163.185 36.543 162.643 36.5524C161.246 36.5524 160.56 37.1835 160.56 38.5476V40.4409H164.243V42.5623H160.557V53.2909H158.017V42.5623H155.02V40.4385H158.017Z" fill="black"/>
<path d="M168.102 42.5598H165.362V40.4383H168.105V37.1566L170.618 36.5498V40.4335H174.429V42.5549H170.618V49.5164C170.618 50.8295 171.153 51.3101 172.523 51.3101C173.156 51.326 173.786 51.2231 174.38 51.0067V53.1257C173.598 53.3684 172.785 53.496 171.967 53.5044C169.451 53.5044 168.105 52.3199 168.105 50.1062L168.102 42.5598Z" fill="black"/>
<path d="M31.5089 20.6318C34.5645 20.6318 38.9855 20.0056 38.9855 16.3938C38.9947 16.115 38.9692 15.8362 38.9098 15.5636L37.0901 7.70895C36.67 5.98072 36.3012 5.19671 33.248 3.67966C30.8713 2.4733 25.7102 0.485352 24.1812 0.485352C22.7596 0.485352 22.337 2.31552 20.6517 2.31552C19.02 2.31552 17.8085 0.956245 16.2819 0.956245C14.8164 0.956245 13.8613 1.949 13.1237 3.99035C13.1237 3.99035 11.0695 9.74787 10.8057 10.5829C10.7621 10.7359 10.7423 10.8947 10.7471 11.0537C10.7471 13.2917 19.6209 20.6318 31.5089 20.6318ZM39.4594 17.8599C39.882 19.8478 39.882 20.0565 39.882 20.3187C39.882 23.7169 36.0374 25.6029 30.9837 25.6029C19.5403 25.6005 9.54531 18.957 9.54531 14.5636C9.54465 13.9517 9.67018 13.3462 9.91414 12.7844C5.80574 12.9907 0.488281 13.7238 0.488281 18.3793C0.488281 26.0204 18.7074 35.4382 33.1332 35.4382C44.1931 35.4382 46.9825 30.4672 46.9825 26.5422C46.9825 23.4547 44.2957 19.9497 39.4521 17.8574" fill="#EE0000"/>
<path d="M39.4522 17.8571C39.8747 19.845 39.8747 20.0538 39.8747 20.3159C39.8747 23.7141 36.0301 25.6001 30.9765 25.6001C19.5404 25.6001 9.54541 18.9567 9.54541 14.5633C9.54475 13.9514 9.67028 13.3459 9.91424 12.7841L10.8082 10.585C10.7641 10.7371 10.7435 10.8951 10.7472 11.0534C10.7472 13.2914 19.621 20.6315 31.509 20.6315C34.5646 20.6315 38.9856 20.0053 38.9856 16.3935C38.9948 16.1147 38.9694 15.8359 38.9099 15.5633L39.4522 17.8571Z" fill="black"/>
<path d="M141.972 22.8894C141.972 25.7754 143.718 27.1784 146.903 27.1784C147.884 27.1541 148.858 27.0173 149.807 26.7706V23.4258C149.201 23.6168 148.568 23.7118 147.932 23.7074C146.62 23.7074 146.134 23.2996 146.134 22.0738V16.9425H149.934V13.4958H146.134V9.12667L141.981 10.0199V13.4958H139.226V16.9425H141.974L141.972 22.8894ZM129.026 22.967C129.026 22.0738 129.927 21.6393 131.288 21.6393C132.119 21.6441 132.948 21.7468 133.755 21.9452V23.6807C132.961 24.1113 132.07 24.3311 131.166 24.319C129.832 24.319 129.033 23.8093 129.033 22.967M130.304 27.2294C131.769 27.2294 132.951 26.9235 134.055 26.1832V27.0012H138.164V18.3455C138.164 15.0541 135.931 13.2482 132.206 13.2482C130.125 13.2482 128.069 13.7337 125.856 14.7288L127.346 17.7678C128.938 17.1027 130.277 16.6949 131.456 16.6949C133.166 16.6949 134.05 17.3576 134.05 18.712V19.3747C133.044 19.1157 132.008 18.9868 130.968 18.9912C127.473 18.9912 125.367 20.4475 125.367 23.052C125.367 25.4259 127.267 27.2366 130.299 27.2366M107.72 27.0085H112.138V20.0058H119.537V27.0012H123.955V9.13152H119.546V15.9983H112.148V9.13152H107.729L107.72 27.0085ZM90.8927 20.2363C90.8927 18.2945 92.434 16.8139 94.4638 16.8139C95.5214 16.7914 96.5488 17.1658 97.3411 17.8625V22.5738C96.9565 22.9325 96.5042 23.212 96.0104 23.3961C95.5165 23.5803 94.9909 23.6654 94.4638 23.6467C92.4609 23.6467 90.8927 22.166 90.8927 20.2266M97.3924 26.9915H101.503V8.23828L97.3509 9.13152V14.2118C96.2938 13.6163 95.0975 13.3082 93.8824 13.3186C89.9279 13.3186 86.8185 16.3551 86.8185 20.2363C86.8062 21.1468 86.9765 22.0506 87.3194 22.895C87.6623 23.7394 88.171 24.5074 88.8159 25.1543C89.4607 25.8012 90.2287 26.314 91.0751 26.6628C91.9215 27.0115 92.8294 27.1893 93.7456 27.1857C95.056 27.1919 96.334 26.781 97.3924 26.0133V26.9915ZM78.5382 16.627C79.8475 16.627 80.9515 17.4692 81.3887 18.7703H75.7195C76.1299 17.4183 77.1582 16.627 78.5456 16.627M71.5256 20.2606C71.5256 24.1928 74.762 27.2561 78.9217 27.2561C81.208 27.2561 82.8787 26.642 84.6007 25.2123L81.8504 22.785C81.208 23.4501 80.2578 23.8069 79.1293 23.8069C78.4197 23.8267 77.7207 23.6326 77.1242 23.25C76.5278 22.8675 76.0619 22.3144 75.7879 21.6636H85.4727V20.6441C85.4727 16.3551 82.5709 13.2676 78.614 13.2676C77.6838 13.2537 76.7602 13.4247 75.8975 13.7706C75.0348 14.1165 74.2504 14.6303 73.5904 15.2819C72.9305 15.9334 72.4083 16.7095 72.0545 17.5645C71.7008 18.4195 71.5226 19.3362 71.5305 20.2606M64.3591 12.8841C65.8247 12.8841 66.6454 13.8016 66.6454 14.9012C66.6454 16.0007 65.8222 16.9183 64.3591 16.9183H59.9918V12.8841H64.3591ZM55.5659 27.0012H59.9845V20.4912H63.3479L66.7406 27.0012H71.6722L67.7152 19.8528C68.7208 19.4464 69.5811 18.7503 70.1853 17.854C70.7894 16.9577 71.1099 15.9023 71.1055 14.8235C71.1055 11.6074 68.5628 9.13152 64.7548 9.13152H55.5732L55.5659 27.0012Z" fill="black"/>
</g>
<defs>
<clipPath id="clip0_427_509">
<rect width="175" height="59" fill="white"/>
</clipPath>
</defs>
</svg>
