<svg width="162" height="55" viewBox="0 0 162 55" fill="none" xmlns="http://www.w3.org/2000/svg">
<g clip-path="url(#clip0_427_487)">
<path d="M59.5557 49.9341C54.7576 49.9341 50.9951 46.1939 50.9951 41.4399C50.9951 36.6859 54.7576 32.9434 59.5557 32.9434C64.3538 32.9434 68.148 36.6859 68.148 41.4399C68.148 46.1939 64.3515 49.9341 59.5557 49.9341ZM59.5557 35.2264C56.1459 35.2264 53.5117 37.91 53.5117 41.4399C53.5117 44.9697 56.1459 47.6511 59.5557 47.6511C62.9655 47.6511 65.6223 44.9358 65.6223 41.4399C65.6223 37.944 62.9881 35.2264 59.5557 35.2264Z" fill="black"/>
<path d="M70.4905 37.6972H72.8081V38.8512C73.8235 37.9667 75.1296 37.4888 76.4757 37.5094C79.8673 37.5094 82.5219 40.2247 82.5219 43.6753C82.5219 47.126 79.8628 49.8639 76.4304 49.8639C75.1363 49.8677 73.8751 49.4552 72.833 48.6873V54.5477H70.4814L70.4905 37.6972ZM72.8421 40.9918V46.4042C73.5927 47.2753 74.8409 47.8161 76.1795 47.8161C78.4858 47.8161 80.2246 46.0512 80.2246 43.698C80.2246 41.3447 78.4609 39.5572 76.1795 39.5572C74.816 39.5572 73.6176 40.0754 72.8421 40.9918Z" fill="black"/>
<path d="M90.5487 49.8859C87.0213 49.8859 84.2695 47.1706 84.2695 43.6747C84.2695 40.215 86.9037 37.5088 90.266 37.5088C93.5582 37.5088 96.05 40.2376 96.05 43.7675V44.4463H86.6007C86.746 45.4111 87.2356 46.2906 87.9788 46.922C88.7221 47.5535 89.6687 47.8942 90.6436 47.8811C91.746 47.9042 92.8207 47.5345 93.6758 46.838L95.1817 48.3223C93.869 49.3724 92.2287 49.9259 90.5487 49.8859ZM86.6211 42.6859H93.7233C93.3705 40.8508 91.9596 39.4864 90.2185 39.4864C88.4096 39.4864 86.9738 40.7807 86.6211 42.6859Z" fill="black"/>
<path d="M98.2842 37.6969H100.636V38.8984C101.108 38.4273 101.67 38.0571 102.289 37.8101C102.909 37.5631 103.571 37.4445 104.238 37.4616C106.987 37.4616 108.916 39.369 108.916 42.1454V49.6757H106.564V42.5391C106.564 40.6565 105.411 39.5025 103.602 39.5025C103.016 39.4828 102.435 39.6154 101.916 39.8874C101.396 40.1595 100.956 40.5617 100.638 41.0548V49.669H98.2864L98.2842 37.6969Z" fill="black"/>
<path d="M111.926 45.205C113.712 46.9451 115.543 47.7936 117.594 47.7936C119.968 47.7936 121.592 46.6622 121.592 45.0399C121.592 43.5804 120.651 42.8518 118.252 42.4513L115.5 41.9988C112.491 41.5055 111.008 40.0935 111.008 37.7154C111.008 34.8463 113.407 32.9863 117.076 32.9863C119.471 32.993 121.798 33.7775 123.708 35.2219L122.352 37.1045C120.565 35.7468 118.802 35.0816 116.968 35.0816C114.827 35.0816 113.393 36.0682 113.393 37.5276C113.393 38.8694 114.216 39.5052 116.332 39.8582L118.978 40.2768C122.458 40.8425 124.034 42.2771 124.034 44.843C124.034 47.8773 121.4 49.9024 117.477 49.9024C116.163 49.9003 114.863 49.637 113.652 49.1277C112.441 48.6185 111.343 47.8735 110.422 46.936L111.926 45.205Z" fill="black"/>
<path d="M126.032 33.2027L128.384 32.6846V38.898C128.855 38.4275 129.417 38.0576 130.035 37.8106C130.654 37.5637 131.316 37.4448 131.981 37.4612C134.733 37.4612 136.662 39.3687 136.662 42.145V49.6754H134.31V42.5387C134.31 40.6561 133.157 39.5022 131.346 39.5022C130.76 39.4828 130.18 39.6156 129.66 39.8876C129.141 40.1597 128.701 40.5616 128.384 41.0544V49.6686H126.032V33.2027Z" fill="black"/>
<path d="M139.106 34.3078C139.105 34.1177 139.14 33.9292 139.212 33.7531C139.283 33.5769 139.389 33.4166 139.522 33.2813C139.655 33.1459 139.814 33.0382 139.989 32.9643C140.164 32.8904 140.352 32.8518 140.542 32.8506C140.918 32.8654 141.275 33.0256 141.536 33.2974C141.797 33.5693 141.943 33.9318 141.943 34.3089C141.943 34.686 141.797 35.0485 141.536 35.3204C141.275 35.5923 140.918 35.7524 140.542 35.7672C140.352 35.7661 140.164 35.7273 139.989 35.6533C139.813 35.5792 139.655 35.4713 139.521 35.3358C139.388 35.2002 139.282 35.0396 139.211 34.8632C139.14 34.6868 139.104 34.498 139.106 34.3078ZM141.718 49.6762H139.366V37.6973H141.718V49.6762Z" fill="black"/>
<path d="M146.278 37.6971V35.8869C146.278 33.3979 147.712 32.029 150.348 32.029C150.92 32.0207 151.49 32.0915 152.042 32.2394V34.2872C151.563 34.1375 151.063 34.0657 150.561 34.0745C149.267 34.0745 148.632 34.6628 148.632 35.9344V37.6993H152.042V39.677H148.63V49.6782H146.278V39.677H143.504V37.6971H146.278Z" fill="black"/>
<path d="M155.615 39.6748H153.078V37.6971H155.617V34.6379L157.944 34.0723V37.6926H161.471V39.6702H157.944V46.1597C157.944 47.3839 158.439 47.8319 159.707 47.8319C160.293 47.8467 160.876 47.7508 161.426 47.549V49.5244C160.702 49.7506 159.95 49.8695 159.192 49.8774C156.863 49.8774 155.617 48.7732 155.617 46.7096L155.615 39.6748Z" fill="black"/>
<path d="M29.1683 19.2327C31.997 19.2327 36.0896 18.649 36.0896 15.282C36.0981 15.0222 36.0745 14.7623 36.0195 14.5082L34.335 7.18601C33.9461 5.57495 33.6046 4.84409 30.7782 3.42989C28.5782 2.30532 23.8004 0.452148 22.385 0.452148C21.069 0.452148 20.6778 2.15824 19.1177 2.15824C17.6072 2.15824 16.4857 0.891117 15.0725 0.891117C13.7159 0.891117 12.8318 1.81657 12.1489 3.71952C12.1489 3.71952 10.2473 9.0867 10.0031 9.86507C9.96277 10.0078 9.94447 10.1558 9.94884 10.304C9.94884 12.3903 18.1635 19.2327 29.1683 19.2327ZM36.5283 16.6487C36.9194 18.5019 36.9194 18.6965 36.9194 18.9409C36.9194 22.1087 33.3604 23.8668 28.6822 23.8668C18.0889 23.8645 8.83637 17.6715 8.83637 13.5759C8.83576 13.0055 8.95196 12.4411 9.1778 11.9174C5.3746 12.1097 0.452148 12.793 0.452148 17.1329C0.452148 24.256 17.3178 33.0354 30.672 33.0354C40.9103 33.0354 43.4925 28.4013 43.4925 24.7425C43.4925 21.8643 41.0053 18.5969 36.5215 16.6465" fill="black"/>
<path d="M36.5215 16.6473C36.9127 18.5005 36.9127 18.695 36.9127 18.9394C36.9127 22.1072 33.3537 23.8654 28.6755 23.8654C18.0889 23.8654 8.83643 17.6723 8.83643 13.5768C8.83582 13.0064 8.95202 12.4419 9.17786 11.9182L10.0054 9.86816C9.96455 10.01 9.94549 10.1573 9.9489 10.3049C9.9489 12.3911 18.1635 19.2336 29.1684 19.2336C31.9971 19.2336 36.0897 18.6498 36.0897 15.2829C36.0981 15.023 36.0746 14.7631 36.0196 14.509L36.5215 16.6473Z" fill="black"/>
<path d="M131.425 21.3375C131.425 24.0279 133.042 25.3357 135.99 25.3357C136.898 25.3131 137.8 25.1855 138.679 24.9556V21.8375C138.117 22.0156 137.531 22.1042 136.942 22.1C135.728 22.1 135.278 21.7199 135.278 20.5772V15.7938H138.796V12.5807H135.278V8.50784L131.434 9.34053V12.5807H128.884V15.7938H131.427L131.425 21.3375ZM119.441 21.4099C119.441 20.5772 120.275 20.1722 121.535 20.1722C122.305 20.1767 123.071 20.2724 123.819 20.4573V22.0751C123.084 22.4765 122.259 22.6815 121.422 22.6702C120.187 22.6702 119.448 22.1951 119.448 21.4099M120.624 25.3832C121.98 25.3832 123.075 25.0981 124.097 24.408V25.1705H127.9V17.1017C127.9 14.0334 125.833 12.3499 122.385 12.3499C120.459 12.3499 118.555 12.8025 116.506 13.7302L117.885 16.5631C119.36 15.9432 120.599 15.563 121.691 15.563C123.274 15.563 124.092 16.1807 124.092 17.4433V18.0611C123.16 17.8197 122.201 17.6995 121.239 17.7035C118.003 17.7035 116.054 19.0612 116.054 21.4891C116.054 23.702 117.813 25.39 120.619 25.39M99.7174 25.1773H103.808V18.6494H110.657V25.1705H114.747V8.51237H110.666V14.9136H103.817V8.51237H99.7264L99.7174 25.1773ZM84.1405 18.8643C84.1405 17.0541 85.5673 15.6739 87.4463 15.6739C88.4254 15.6529 89.3764 16.0019 90.1099 16.6514V21.0433C89.7538 21.3777 89.3352 21.6382 88.878 21.8099C88.4208 21.9815 87.9342 22.0609 87.4463 22.0435C85.5922 22.0435 84.1405 20.6632 84.1405 18.8553M90.1574 25.1615H93.9628V7.67969L90.1189 8.51237V13.2482C89.1404 12.6931 88.0329 12.4059 86.9081 12.4156C83.2474 12.4156 80.369 15.2462 80.369 18.8643C80.3576 19.7131 80.5152 20.5556 80.8326 21.3427C81.1501 22.1298 81.621 22.8458 82.218 23.4489C82.8149 24.0519 83.5259 24.5299 84.3094 24.8551C85.0929 25.1802 85.9333 25.3459 86.7815 25.3425C87.9945 25.3483 89.1776 24.9653 90.1574 24.2496V25.1615ZM72.7038 15.4997C73.9158 15.4997 74.9378 16.2848 75.3425 17.4976H70.0945C70.4743 16.2373 71.4263 15.4997 72.7106 15.4997M66.2121 18.887C66.2121 22.5526 69.2081 25.4081 73.0588 25.4081C75.1752 25.4081 76.7218 24.8357 78.3159 23.5029L75.7699 21.2402C75.1752 21.8602 74.2956 22.1928 73.251 22.1928C72.5941 22.2113 71.947 22.0303 71.3948 21.6737C70.8427 21.3171 70.4114 20.8015 70.1578 20.1948H79.1231V19.2445C79.1231 15.2462 76.4369 12.368 72.7739 12.368C71.9128 12.355 71.0578 12.5145 70.2592 12.8369C69.4606 13.1594 68.7345 13.6384 68.1235 14.2458C67.5126 14.8531 67.0292 15.5766 66.7017 16.3736C66.3742 17.1707 66.2093 18.0252 66.2167 18.887M59.578 12.0105C60.9347 12.0105 61.6944 12.8658 61.6944 13.8909C61.6944 14.9159 60.9324 15.7712 59.578 15.7712H55.5351V12.0105H59.578ZM51.438 25.1705H55.5283V19.1019H58.6419L61.7826 25.1705H66.3478L62.6848 18.5068C63.6157 18.128 64.412 17.479 64.9713 16.6435C65.5306 15.808 65.8273 14.8241 65.8232 13.8185C65.8232 10.8203 63.4694 8.51237 59.9443 8.51237H51.4448L51.438 25.1705Z" fill="black"/>
</g>
<defs>
<clipPath id="clip0_427_487">
<rect width="162" height="55" fill="white"/>
</clipPath>
</defs>
</svg>
