<?xml version="1.0" encoding="UTF-8" standalone="no"?>
<svg
   xmlns:dc="http://purl.org/dc/elements/1.1/"
   xmlns:cc="http://creativecommons.org/ns#"
   xmlns:rdf="http://www.w3.org/1999/02/22-rdf-syntax-ns#"
   xmlns:svg="http://www.w3.org/2000/svg"
   xmlns="http://www.w3.org/2000/svg"
   xmlns:sodipodi="http://sodipodi.sourceforge.net/DTD/sodipodi-0.dtd"
   xmlns:inkscape="http://www.inkscape.org/namespaces/inkscape"
   width="196"
   height="60"
   viewBox="0 0 196 60"
   version="1.1"
   id="svg6"
   sodipodi:docname="suse.svg"
   style="fill:none"
   inkscape:version="0.92.5 (2060ec1f9f, 2020-04-08)">
  <metadata
     id="metadata12">
    <rdf:RDF>
      <cc:Work
         rdf:about="">
        <dc:format>image/svg+xml</dc:format>
        <dc:type
           rdf:resource="http://purl.org/dc/dcmitype/StillImage" />
        <dc:title></dc:title>
      </cc:Work>
    </rdf:RDF>
  </metadata>
  <defs
     id="defs10" />
  <sodipodi:namedview
     pagecolor="#ffffff"
     bordercolor="#666666"
     borderopacity="1"
     objecttolerance="10"
     gridtolerance="10"
     guidetolerance="10"
     inkscape:pageopacity="0"
     inkscape:pageshadow="2"
     inkscape:window-width="640"
     inkscape:window-height="480"
     id="namedview8"
     showgrid="false"
     inkscape:zoom="1.7091837"
     inkscape:cx="98"
     inkscape:cy="19.5"
     inkscape:window-x="131"
     inkscape:window-y="304"
     inkscape:window-maximized="0"
     inkscape:current-layer="svg6" />
  <path
     d="m 193.192,40.7252 h -12.521 c -0.966,0 -1.752,-0.85 -1.752,-1.896 v -6.848 h 12.086 c 1.038,0 1.881,-0.911 1.881,-2.036 0,-1.125 -0.843,-2.037 -1.881,-2.037 h -12.086 v -6.73897 c 0,-1.046 0.786,-1.897 1.752,-1.897 h 12.521 c 1.09,0 1.974,-0.95499 1.974,-2.13599 0,-1.18 -0.884,-2.137 -1.974,-2.137 h -12.521 c -3.141,0 -5.699,2.76699 -5.699,6.16999 V 38.8292 c 0,3.402 2.558,6.169 5.699,6.169 h 12.521 c 1.09,0 1.974,-0.955 1.974,-2.135 0,-1.181 -0.884,-2.138 -1.974,-2.138 z m -36.82,-12.761 c -2.647,-0.515 -4.488,-1.123 -5.518,-1.833 -1.032,-0.709 -1.547,-1.666 -1.547,-2.873 0,-1.29597 0.529,-2.36096 1.587,-3.19096 1.06,-0.828 2.551,-1.244 4.475,-1.244 1.951,0 3.511,0.406 4.682,1.222 0.63,0.439 1.204,1.022 1.721,1.752 0.763,1.068 2.203,1.20996 3.131,0.306 0.874,-0.854 0.951,-2.31801 0.164,-3.26801 -0.949,-1.148 -2.029,-2.057 -3.239,-2.727 -1.799,-0.996 -3.966,-1.493 -6.501,-1.493 -2.174,0 -4.076,0.40601 -5.705,1.22101 -1.631,0.814 -2.88,1.91599 -3.742,3.30299 -0.865,1.389 -1.296,2.92701 -1.296,4.61697 0,1.599 0.34,2.956 1.024,4.072 0.682,1.118 1.777,2.052 3.282,2.806 1.504,0.755 3.524,1.388 6.061,1.901 2.536,0.514 4.312,1.101 5.329,1.765 1.018,0.664 1.526,1.538 1.526,2.623 0,1.359 -0.563,2.408 -1.694,3.147 -1.127,0.739 -2.681,1.109 -4.66,1.109 -2.09,0 -3.839,-0.422 -5.247,-1.268 -0.803,-0.483 -1.523,-1.123 -2.16,-1.92 -0.802,-1.007 -2.241,-1.031 -3.108,-0.091 l -0.008,0.01 c -0.794,0.858 -0.855,2.251 -0.106,3.155 2.385,2.882 5.943,4.322 10.671,4.322 2.173,0 4.09,-0.355 5.749,-1.064 1.658,-0.708 2.945,-1.726 3.865,-3.053 0.921,-1.328 1.381,-2.867 1.381,-4.618 0,-1.628 -0.335,-2.993 -1.003,-4.094 -0.67,-1.101 -1.735,-2.022 -3.199,-2.76 -1.463,-0.74 -3.435,-1.351 -5.915,-1.834 z m -61.7338,0.009 c -2.6473,-0.515 -4.4865,-1.124 -5.5173,-1.833 -1.0318,-0.709 -1.5463,-1.667 -1.5463,-2.875 0,-1.29597 0.5293,-2.35997 1.5878,-3.18897 1.0595,-0.829 2.5504,-1.24499 4.4736,-1.24499 1.949,0 3.5111,0.408 4.6814,1.222 0.6318,0.439 1.2054,1.02299 1.7226,1.75199 0.761,1.07 2.202,1.21097 3.13,0.307 0.875,-0.855 0.951,-2.31899 0.164,-3.26799 -0.949,-1.149 -2.03,-2.058 -3.239,-2.728 -1.7979,-0.995 -3.9659,-1.493 -6.5015,-1.493 -2.1735,0 -4.0754,0.40699 -5.7049,1.22099 -1.6313,0.814 -2.8783,1.91701 -3.742,3.30501 -0.8636,1.387 -1.2959,2.92499 -1.2959,4.61496 0,1.599 0.3399,2.958 1.0244,4.072 0.6826,1.117 1.7772,2.054 3.281,2.807 1.5047,0.755 3.5258,1.388 6.0614,1.901 2.5357,0.513 4.312,1.102 5.3299,1.765 1.017,0.663 1.5256,1.538 1.5256,2.624 0,1.358 -0.564,2.406 -1.6919,3.145 -1.1297,0.74 -2.6834,1.109 -4.661,1.109 -2.0913,0 -3.8409,-0.422 -5.2477,-1.268 -0.8027,-0.482 -1.5232,-1.122 -2.1587,-1.919 -0.8018,-1.008 -2.2419,-1.031 -3.1111,-0.09 l -0.0065,0.008 c -0.7944,0.858 -0.8553,2.251 -0.1062,3.155 2.385,2.883 5.9423,4.322 10.6717,4.322 2.1735,0 4.0893,-0.354 5.7474,-1.063 1.658,-0.708 2.947,-1.728 3.867,-3.055 0.92,-1.326 1.379,-2.867 1.379,-4.616 0,-1.629 -0.335,-2.993 -1.003,-4.095 -0.67,-1.102 -1.734,-2.021 -3.199,-2.76 -1.4624,-0.74 -3.4337,-1.35 -5.9148,-1.833 z M 135.811,17.05823 V 33.4862 c 0,3.921 -0.961,6.885 -2.884,8.892 -1.923,2.007 -4.724,3.009 -8.401,3.009 -3.68,0 -6.481,-1.002 -8.404,-3.009 -1.922,-2.007 -2.883,-4.971 -2.883,-8.892 V 17.05823 c 0,-1.35 1.009,-2.443 2.256,-2.443 1.246,0 2.258,1.093 2.258,2.443 V 32.8972 c 0,2.837 0.55,4.926 1.651,6.268 1.101,1.342 2.807,2.014 5.122,2.014 2.313,0 4.018,-0.672 5.119,-2.014 1.101,-1.342 1.652,-3.431 1.652,-6.268 V 17.05823 c 0,-1.35 1.011,-2.443 2.257,-2.443 1.247,0 2.257,1.093 2.257,2.443 z"
     id="path2"
     inkscape:connector-curvature="0"
     style="fill:#0c322c" />
  <path
     d="m 66.5924,27.1595 c -0.3741,0.269 -0.8747,0.269 -1.2497,0 -0.6134,-0.441 -0.6725,-1.363 -0.1774,-1.896 0.4397,-0.493 1.1648,-0.493 1.6045,-0.001 0.4942,0.534 0.4342,1.456 -0.1774,1.897 z m 1.7884,-2.687 c 0.7131,3.284 -2.0137,6.237 -5.0472,5.465 -1.5445,-0.392 -2.7703,-1.719 -3.1333,-3.39 -0.7112,-3.282 2.0147,-6.23296 5.0472,-5.46396 1.5436,0.391 2.7703,1.717 3.1333,3.38896 z m -20.4253,17.662 c 0.3464,0.539 0.6346,1.06 0.7963,1.581 0.1145,0.37 0.2614,0.858 0.5985,1.054 0.0185,0.011 0.0351,0.021 0.0555,0.027 0.6188,0.244 2.2104,0.203 2.2104,0.203 h 2.9273 c 0.2503,0.004 2.4497,-0.003 2.3943,-0.269 -0.2652,-1.273 -1.6249,-1.501 -2.6604,-2.167 -0.9542,-0.616 -1.8594,-1.314 -2.2695,-2.515 -0.2143,-0.62 -0.0878,-2.05 0.2808,-2.571 0.2688,-0.377 0.6651,-0.627 1.0909,-0.728 0.472,-0.109 0.9616,-0.015 1.4336,0.037 0.5819,0.064 1.1565,0.178 1.7366,0.256 1.1195,0.158 2.2502,0.221 3.379,0.188 1.8631,-0.056 3.7308,-0.377 5.497,-1.029 1.2332,-0.448 2.4478,-1.054 3.4963,-1.897 1.1916,-0.959 0.8784,-0.869 -0.3298,-0.735 -1.4465,0.16 -2.906,0.184 -4.3572,0.091 -1.3541,-0.085 -2.6898,-0.258 -3.9147,-0.939 -0.9644,-0.539 -1.7929,-1.079 -2.5578,-1.914 -0.1145,-0.126 -0.1856,-0.494 0.024,-0.729 0.2033,-0.228 0.6337,-0.096 0.7658,0.026 1.3339,1.207 3.3235,2.201 5.3834,2.309 1.114,0.06 2.1976,0.082 3.3125,0.03 0.557,-0.028 1.3976,-0.024 1.9564,-0.03 0.2882,-0.004 1.0743,0.086 1.2212,-0.245 0.0443,-0.096 0.0406,-0.207 0.0369,-0.315 -0.1635,-4.826 -0.4932,-10.26896 -5.158,-12.57596 -3.4806,-1.723 -8.6987,-4.392 -10.9027,-5.499002 -0.5108,-0.263 -1.1084,0.153001 -1.1084,0.769002 0,1.612 0.0757,3.928 0.0767,6.036 -1.0559,-1.164 -2.834,-1.899 -4.1891,-2.573 -1.5389,-0.764 -3.1277,-1.412 -4.7442,-1.957 -3.2543,-1.091 -6.6222,-1.763 -10.0094,-2.127001 -3.8418,-0.415 -7.7482,-0.216001 -11.5308,0.630001 -6.2296,1.398 -12.3529,4.641 -17.00103,9.38396 -2.85336,2.91 -5.092458,7.047 -5.243948,11.246 -0.21615,5.943 1.321838,9.134 4.148418,12.423 4.50774,5.242 14.20956,5.976 18.13906,-0.24 1.768,-2.798 2.1513,-6.593 0.8683,-9.686 -1.2831,-3.091 -4.2325,-5.325 -7.3593,-5.439 -2.4266,-0.087 -5.0121,1.249 -5.9423,3.678 -0.70937,1.855 -0.3057,4.147 0.9866,5.587 0.5034,0.562 1.1851,1.022 1.9296,0.842 0.4388,-0.106 0.8055,-0.463 0.872,-0.945 0.0979,-0.711 -0.4766,-1.172 -0.8304,-1.718 -0.6383,-0.985 -0.509,-2.464 0.29,-3.301 0.6744,-0.707 1.6729,-0.916 2.6114,-0.913 0.8738,0.002 1.7671,0.171 2.5208,0.648 1.0595,0.675 1.7634,1.911 2.0073,3.217 0.7269,3.903 -2.204,7.074 -6.1779,7.323 -2.0331,0.13 -4.1022,-0.448 -5.68915,-1.831 -4.0191,-3.5 -5.00378,-10.654 -0.41013,-14.473 4.36088,-3.625 9.86628,-2.691 13.11218,-0.807 2.5975,1.507 4.5336,3.973 6.0005,6.699 0.7362,1.371 1.3634,2.804 1.9453,4.259 0.5598,1.399 1.0835,2.809 2.204,3.834 0.7418,0.68 1.6572,0.656 2.6289,0.656 h 5.5469 c 0.7538,0 0.57,-0.544 0.2448,-0.904 -0.7353,-0.814 -1.792,-0.998 -2.7702,-1.289 -2.2363,-0.666 -2.0082,-3.871 -1.3893,-3.871 1.9989,0 2.0618,0.065 3.8131,0.041 2.5273,-0.038 3.2922,-0.197 5.2689,0.594 1.0567,0.424 2.0719,1.542 2.7342,2.564 z"
     id="path4"
     inkscape:connector-curvature="0"
     style="fill:#30ba78" />
</svg>
