<svg width="121" height="60" viewBox="0 0 121 60" fill="none" xmlns="http://www.w3.org/2000/svg">
<path d="M48.1234 25.9001H44.4414V23.7021H54.3014V25.9001H50.6194V36.9002H48.1244L48.1234 25.9001ZM56.5734 35.1041C57.5734 35.0991 58.5674 34.9461 59.5234 34.6491L59.9034 36.4692C58.7684 36.8851 57.5693 37.099 56.3604 37.1012C53.3284 37.1012 52.2804 35.7011 52.2804 33.3811V30.8551C52.2804 28.8151 53.1804 27.0551 56.2784 27.0551C59.3764 27.0551 60.0784 28.8551 60.0784 30.9331V32.9931H54.7084V33.4861C54.7084 34.6421 55.1084 35.0861 56.5844 35.0861L56.5734 35.1041ZM54.6784 31.0441H57.7484V30.5701C57.7484 29.6701 57.4704 29.0301 56.2834 29.0301C55.0964 29.0301 54.6794 29.6621 54.6794 30.5701L54.6784 31.0441Z" fill="black"/>
<path d="M66.5159 29.258C65.6389 29.662 64.7939 30.133 63.9899 30.668V36.883H61.5459V27.238H63.5859L63.7439 28.305C64.527 27.7752 65.3762 27.3506 66.2699 27.042L66.5159 29.258Z" fill="black"/>
<path d="M72.4153 29.258C71.5383 29.662 70.6933 30.133 69.8893 30.668V36.883H67.4453V27.238H69.4853L69.6433 28.305C70.4264 27.7752 71.2757 27.3506 72.1693 27.042L72.4153 29.258Z" fill="black"/>
<path d="M80.4884 36.8753H78.5114L78.3344 36.2433C77.4804 36.7977 76.4846 37.0939 75.4664 37.0963C73.7044 37.0963 72.9404 35.8903 72.9404 34.2283C72.9404 32.2703 73.7934 31.5283 75.7404 31.5283H78.0584V30.5283C78.0584 29.4613 77.7614 29.0823 76.2204 29.0823C75.3221 29.092 74.427 29.1914 73.5484 29.3793L73.2514 27.5413C74.3274 27.2438 75.4381 27.0907 76.5544 27.0863C79.5864 27.0863 80.4764 28.1533 80.4764 30.5733L80.4884 36.8753ZM78.0754 33.2313H76.2954C75.4954 33.2313 75.2954 33.4463 75.2954 34.1783C75.2954 34.9103 75.5104 35.1513 76.2684 35.1513C76.9066 35.1428 77.5323 34.9732 78.0874 34.6583L78.0754 33.2313ZM87.9154 25.0313C87.4607 24.9338 86.9975 24.8809 86.5324 24.8733C85.5854 24.8733 85.4464 25.2903 85.4464 26.0233V27.2293H87.8964L87.7564 29.1243H85.4384V36.8423H83.0254V29.1603H81.4784V27.2653H83.0184V25.8953C83.0184 23.8933 83.9464 22.9073 86.0884 22.9073C86.7906 22.9042 87.4898 22.9977 88.1664 23.1853L87.9154 25.0313ZM92.6274 37.0673C89.3244 37.0673 88.4334 35.2473 88.4334 33.2673V30.8503C88.4334 28.8733 89.3334 27.0503 92.6274 27.0503C95.9214 27.0503 96.8274 28.8703 96.8274 30.8503V33.2883C96.8214 35.2523 95.9304 37.0883 92.6274 37.0883V37.0673ZM92.6274 29.0903C91.3644 29.0903 90.8474 29.6653 90.8474 30.7503V33.3463C90.8474 34.4323 91.3404 35.0063 92.6274 35.0063C93.9144 35.0063 94.4074 34.4313 94.4074 33.3463V30.7603C94.4074 29.6673 93.9074 29.0933 92.6274 29.0933V29.0903ZM103.027 29.2483C102.15 29.6521 101.306 30.1235 100.501 30.6583V36.8733H98.0614V27.2283H100.101L100.259 28.2953C101.043 27.7656 101.892 27.3409 102.785 27.0323L103.027 29.2483ZM109.667 36.8753V30.1483C109.667 29.6363 109.452 29.3783 108.897 29.3783C108.009 29.4783 107.149 29.7543 106.371 30.1933V36.8933H103.971V27.2483H105.809L106.049 28.0633C107.252 27.4611 108.566 27.1171 109.909 27.0533C110.282 27.0187 110.655 27.0989 110.98 27.283C111.306 27.4672 111.567 27.7464 111.728 28.0833C112.932 27.4673 114.255 27.1163 115.606 27.0533C117.21 27.0533 117.786 28.1833 117.786 29.9033V36.8893H115.373V30.1623C115.373 29.6503 115.158 29.3923 114.603 29.3923C113.714 29.4842 112.853 29.7618 112.077 30.2073V36.9073L109.667 36.8753Z" fill="black"/>
<path fill-rule="evenodd" clip-rule="evenodd" d="M28.5724 37.9337V37.8457L16.9424 31.1294V44.5566L28.5724 51.273V37.9337ZM28.5724 22.94V36.3727L16.9424 29.6564V16.2236L28.5724 22.94Z" fill="black"/>
<path fill-rule="evenodd" clip-rule="evenodd" d="M29.8477 36.3727L41.4831 29.6564V16.2236L29.8477 22.94V36.3727Z" fill="black"/>
<path fill-rule="evenodd" clip-rule="evenodd" d="M4.03711 22.1593L15.6671 28.8757V15.4429L4.03711 8.72656V22.1593Z" fill="black"/>
</svg>
