<?xml version="1.0" encoding="UTF-8" standalone="no"?>
<svg
   xmlns:dc="http://purl.org/dc/elements/1.1/"
   xmlns:cc="http://creativecommons.org/ns#"
   xmlns:rdf="http://www.w3.org/1999/02/22-rdf-syntax-ns#"
   xmlns:svg="http://www.w3.org/2000/svg"
   xmlns="http://www.w3.org/2000/svg"
   xmlns:sodipodi="http://sodipodi.sourceforge.net/DTD/sodipodi-0.dtd"
   xmlns:inkscape="http://www.inkscape.org/namespaces/inkscape"
   width="311"
   height="58.967999"
   viewBox="0 0 311 58.967999"
   version="1.1"
   id="svg33"
   sodipodi:docname="cloud-native-logo.svg"
   style="fill:none"
   inkscape:version="0.92.5 (2060ec1f9f, 2020-04-08)">
  <metadata
     id="metadata37">
    <rdf:RDF>
      <cc:Work
         rdf:about="">
        <dc:format>image/svg+xml</dc:format>
        <dc:type
           rdf:resource="http://purl.org/dc/dcmitype/StillImage" />
        <dc:title></dc:title>
      </cc:Work>
    </rdf:RDF>
  </metadata>
  <sodipodi:namedview
     pagecolor="#ffffff"
     bordercolor="#666666"
     borderopacity="1"
     objecttolerance="10"
     gridtolerance="10"
     guidetolerance="10"
     inkscape:pageopacity="0"
     inkscape:pageshadow="2"
     inkscape:window-width="1239"
     inkscape:window-height="617"
     id="namedview35"
     showgrid="false"
     inkscape:zoom="4.3086817"
     inkscape:cx="73.47542"
     inkscape:cy="22.574561"
     inkscape:window-x="0"
     inkscape:window-y="27"
     inkscape:window-maximized="0"
     inkscape:current-layer="svg33" />
  <path
     d="m 99.845,5.831313 c 0,0 0,-0.05745 0,-0.09029 v -0.0985 c -0.123,-3.04527 -2.62,-5.47493 -5.692,-5.47493 h -0.041 c -3.088,0.01642 -5.576,2.48711 -5.6581,5.54881 h -0.0165 l 0.1807,31.930296 c -0.2299,-0.4269 -0.4845,-0.9111 -0.7556,-1.4365 -2.9073,-5.5652 -8.3276,-15.9405 -17.7723,-15.2428 -7.9992,0.5664 -11.4321,5.3847 -17.3617,16.2442 -5.4039,9.8992 -10.1262,10.6134 -14.4954,10.5231 -8.8944,-0.2052 -12.0399,-6.2383 -12.5244,-11.3193 -0.3531,-3.6527 0.8377,-10.3588 7.9663,-12.4355 5.5272,-1.6089 8.7548,0.7223 10.5205,1.7155 0.4435,0.2462 1.002,0.0985 1.2812,-0.3283 l 5.0426,-7.9292 c 0.2218,-0.3448 0.1232,-0.7963 -0.2299,-1.0097 -2.6281,-1.5678 -11.8921,-6.443486 -21.0164,-3.2587 -9.4692,3.308 -14.9718,12.0827 -14.7172,23.4593 0.2382,10.9171 8.3606,22.146 23.4309,22.499 0.2464,0 0.501,0.0082 0.7474,0.0082 10.3891,0 17.0578,-4.1124 23.2584,-15.4809 5.5354,-10.1454 6.2991,-11.1386 8.919,-11.3274 3.0387,0.041 3.0962,1.3544 7.4818,9.3492 0.928,1.6992 2.4884,4.6706 2.7348,5.1302 l 2.4146,4.2684 c 2.6444,4.2026 6.1841,8.8649 11.1113,7.7568 5.183,-1.1656 5.454,-5.7951 5.454,-11.9349 L 99.845,5.814903 Z"
     id="path2"
     inkscape:connector-curvature="0"
     style="fill:url(#paint0_linear_188_1957)" />
  <path
     d="m 125.818,26.217399 c 0.78,-1.4474 1.866,-2.5816 3.269,-3.3918 1.402,-0.8101 2.984,-1.2098 4.756,-1.2098 2.172,0 4.028,0.5833 5.578,1.7607 1.55,1.1774 2.583,2.7761 3.1,4.8068 h -4.893 c -0.369,-0.7777 -0.886,-1.3826 -1.55,-1.7931 -0.664,-0.4104 -1.423,-0.6157 -2.278,-0.6157 -1.37,0 -2.488,0.4861 -3.332,1.4691 -0.854,0.9829 -1.276,2.2899 -1.276,3.921 0,1.6311 0.422,2.9489 1.276,3.9211 0.854,0.9829 1.962,1.469 3.332,1.469 0.855,0 1.614,-0.2052 2.278,-0.6157 0.664,-0.4105 1.181,-1.0046 1.55,-1.7931 h 4.893 c -0.517,2.0307 -1.55,3.6294 -3.1,4.7852 -1.55,1.1666 -3.406,1.7499 -5.578,1.7499 -1.772,0 -3.354,-0.3997 -4.756,-1.2098 -1.403,-0.8102 -2.489,-1.9335 -3.269,-3.3702 -0.78,-1.4366 -1.171,-3.0893 -1.171,-4.9364 0,-1.8471 0.391,-3.4998 1.171,-4.9472 z"
     id="path4"
     inkscape:connector-curvature="0"
     style="fill:#ffffff" />
  <path
     d="m 149.671,20.424199 v 20.2567 h -4.767 v -20.2567 z"
     id="path6"
     inkscape:connector-curvature="0"
     style="fill:#ffffff" />
  <path
     d="m 154.621,39.751099 c -1.167,-0.6345 -2.085,-1.5315 -2.755,-2.7021 -0.669,-1.1705 -1.004,-2.5379 -1.004,-4.1132 0,-1.5753 0.335,-2.91 1.015,-4.0914 0.681,-1.1815 1.599,-2.0895 2.776,-2.713 1.178,-0.6345 2.496,-0.9409 3.954,-0.9409 1.458,0 2.776,0.3173 3.954,0.9409 1.177,0.6344 2.095,1.5315 2.776,2.713 0.68,1.1814 1.015,2.5489 1.015,4.0914 0,1.5424 -0.345,2.9099 -1.026,4.0914 -0.681,1.1814 -1.62,2.0894 -2.798,2.713 -1.188,0.6345 -2.506,0.9408 -3.964,0.9408 -1.458,0 -2.776,-0.3173 -3.932,-0.9408 z m 6.168,-4.0257 c 0.616,-0.6455 0.918,-1.5753 0.918,-2.7787 0,-1.2034 -0.302,-2.1332 -0.896,-2.7786 -0.594,-0.6455 -1.329,-0.9737 -2.204,-0.9737 -0.875,0 -1.631,0.3173 -2.214,0.9627 -0.584,0.6345 -0.886,1.5753 -0.886,2.8005 0,1.2253 0.291,2.1333 0.864,2.7787 0.583,0.6454 1.307,0.9736 2.171,0.9736 0.864,0 1.61,-0.3282 2.225,-0.9736 z"
     id="path8"
     inkscape:connector-curvature="0"
     style="fill:#ffffff" />
  <path
     d="m 184.216,25.190499 v 15.3238 h -4.392 v -2.0891 c -0.447,0.6778 -1.051,1.2223 -1.811,1.6335 -0.759,0.4111 -1.602,0.6223 -2.529,0.6223 -1.092,0 -2.07,-0.2556 -2.903,-0.7779 -0.843,-0.5223 -1.488,-1.2779 -1.957,-2.2669 -0.457,-0.989 -0.697,-2.1557 -0.697,-3.4892 v -8.9453 h 4.371 v 8.323 c 0,1.0223 0.25,1.8224 0.749,2.3891 0.5,0.5668 1.166,0.8557 2.009,0.8557 0.843,0 1.53,-0.2889 2.029,-0.8557 0.5,-0.5667 0.749,-1.3668 0.749,-2.3891 v -8.323 h 4.392 z"
     id="path10"
     inkscape:connector-curvature="0"
     style="fill:#ffffff" />
  <path
     d="m 187.461,28.792299 c 0.575,-1.1735 1.342,-2.0729 2.332,-2.709 0.979,-0.6361 2.076,-0.9432 3.289,-0.9432 0.969,0 1.842,0.2084 2.641,0.6252 0.798,0.4168 1.426,0.9761 1.884,1.678 v -7.0191 h 4.493 v 20.0483 h -4.493 v -2.1715 c -0.426,0.7238 -1.022,1.3051 -1.799,1.7328 -0.777,0.4387 -1.693,0.6471 -2.726,0.6471 -1.213,0 -2.31,-0.3181 -3.289,-0.9651 -0.98,-0.6361 -1.757,-1.5574 -2.332,-2.7419 -0.575,-1.1844 -0.852,-2.5554 -0.852,-4.1018 0,-1.5464 0.288,-2.9173 0.852,-4.0908 z m 9.209,1.3819 c -0.617,-0.669 -1.384,-0.9981 -2.278,-0.9981 -0.894,0 -1.65,0.3291 -2.278,0.9871 -0.618,0.658 -0.937,1.5683 -0.937,2.7199 0,1.1516 0.308,2.0728 0.937,2.7528 0.617,0.68 1.384,1.02 2.278,1.02 0.894,0 1.65,-0.329 2.278,-0.9981 0.618,-0.669 0.937,-1.5793 0.937,-2.7418 0,-1.1625 -0.309,-2.0728 -0.937,-2.7418 z"
     id="path12"
     inkscape:connector-curvature="0"
     style="fill:#ffffff" />
  <path
     d="m 227.122,40.680999 h -4.538 l -7.605,-11.7646 v 11.7646 h -4.539 v -19.0652 h 4.539 l 7.605,11.8195 v -11.8195 h 4.538 z"
     id="path14"
     inkscape:connector-curvature="0"
     style="fill:#ffffff" />
  <path
     d="m 231.549,28.825699 c 0.564,-1.168 1.341,-2.0632 2.332,-2.6963 0.979,-0.6332 2.076,-0.9389 3.289,-0.9389 1.033,0 1.938,0.2184 2.726,0.6441 0.777,0.4367 1.384,0.9934 1.799,1.703 v -2.1287 h 4.493 v 15.0537 h -4.493 v -2.1287 c -0.437,0.6987 -1.043,1.2663 -1.831,1.703 -0.777,0.4367 -1.693,0.6441 -2.726,0.6441 -1.192,0 -2.278,-0.3166 -3.257,-0.9607 -0.98,-0.6331 -1.757,-1.5501 -2.332,-2.7291 -0.575,-1.179 -0.852,-2.5435 -0.852,-4.0827 0,-1.5392 0.288,-2.9038 0.852,-4.0719 z m 9.209,1.3755 c -0.617,-0.6659 -1.384,-0.9934 -2.278,-0.9934 -0.895,0 -1.65,0.3275 -2.279,0.9825 -0.617,0.655 -0.936,1.561 -0.936,2.7073 0,1.1462 0.308,2.0632 0.936,2.74 0.618,0.6768 1.384,1.0152 2.279,1.0152 0.894,0 1.65,-0.3275 2.278,-0.9934 0.618,-0.6659 0.937,-1.572 0.937,-2.7291 0,-1.1571 -0.309,-2.0632 -0.937,-2.7291 z"
     id="path16"
     inkscape:connector-curvature="0"
     style="fill:#ffffff" />
  <path
     d="m 259.284,36.701199 v 3.9798 h -2.356 c -1.676,0 -2.991,-0.4113 -3.923,-1.2451 -0.942,-0.8337 -1.402,-2.19 -1.402,-4.0798 v -6.1031 h -1.841 v -3.9019 h 1.841 v -3.7353 h 4.624 v 3.7353 h 3.035 v 3.9019 h -3.035 v 6.1475 c 0,0.4558 0.109,0.7893 0.329,0.9894 0.219,0.2001 0.58,0.3002 1.084,0.3002 h 1.655 z"
     id="path18"
     inkscape:connector-curvature="0"
     style="fill:#ffffff" />
  <path
     d="m 262.511,23.470299 c -0.559,-0.4769 -0.833,-1.0621 -0.833,-1.7557 0,-0.6937 0.274,-1.3114 0.833,-1.7775 0.559,-0.4768 1.272,-0.7044 2.164,-0.7044 0.892,0 1.57,0.2384 2.129,0.7044 0.559,0.4769 0.832,1.0621 0.832,1.7775 0,0.7153 -0.285,1.2788 -0.832,1.7557 -0.559,0.4769 -1.273,0.7153 -2.129,0.7153 -0.856,0 -1.605,-0.2384 -2.164,-0.7153 z m 4.661,2.2651 v 14.9455 h -5.018 v -14.9455 z"
     id="path20"
     inkscape:connector-curvature="0"
     style="fill:#ffffff" />
  <path
     d="m 276.578,36.232699 3.09,-11.0422 h 4.65 l -5.053,15.4905 h -5.384 l -5.053,-15.4905 h 4.671 l 3.089,11.0422 z"
     id="path22"
     inkscape:connector-curvature="0"
     style="fill:#ffffff" />
  <path
     d="m 300.911,34.039099 h -10.7 c 0.078,0.9395 0.38,1.6495 0.929,2.1411 0.548,0.4916 1.208,0.7429 2.003,0.7429 1.175,0 2.004,-0.4916 2.462,-1.4529 h 5.037 c -0.257,0.9941 -0.727,1.8789 -1.399,2.6764 -0.672,0.7974 -1.511,1.4092 -2.53,1.8571 -1.018,0.4479 -2.149,0.6773 -3.402,0.6773 -1.511,0 -2.854,-0.3168 -4.041,-0.9395 -1.175,-0.6336 -2.104,-1.5294 -2.764,-2.6983 -0.66,-1.1688 -0.996,-2.5344 -0.996,-4.1074 0,-1.5731 0.324,-2.9277 0.985,-4.1075 0.649,-1.1689 1.567,-2.0647 2.753,-2.6983 1.175,-0.6336 2.53,-0.9395 4.063,-0.9395 1.533,0 2.82,0.3059 3.984,0.9177 1.164,0.6117 2.071,1.4857 2.72,2.6218 0.649,1.1361 0.985,2.4579 0.985,3.9654 0,0.437 -0.022,0.8849 -0.078,1.3546 z m -4.757,-2.5672 c 0,-0.7865 -0.28,-1.4201 -0.828,-1.8898 -0.549,-0.4698 -1.243,-0.6992 -2.071,-0.6992 -0.828,0 -1.466,0.2294 -2.003,0.6773 -0.549,0.4479 -0.885,1.0924 -1.008,1.9117 h 5.921 z"
     id="path24"
     inkscape:connector-curvature="0"
     style="fill:#ffffff" />
  <defs
     id="defs31">
    <linearGradient
       id="paint0_linear_188_1957"
       x1="24.5394"
       y1="29.492399"
       x2="110.108"
       y2="29.492399"
       gradientUnits="userSpaceOnUse"
       gradientTransform="translate(-10,0.167593)">
      <stop
         stop-color="#61C5FF"
         id="stop26" />
      <stop
         offset="1"
         stop-color="#646CF1"
         id="stop28" />
    </linearGradient>
  </defs>
</svg>
