<svg width="338" height="232" viewBox="0 0 338 232" fill="none" xmlns="http://www.w3.org/2000/svg">
<path d="M336.375 22.2474C336.375 22.2474 336.375 22.0217 336.375 21.8927V21.5058C335.891 9.54382 326.063 0 313.973 0H313.811C301.656 0.0644853 291.861 9.76952 291.538 21.796H291.473L292.185 147.22C291.279 145.543 290.277 143.641 289.21 141.577C277.767 119.717 256.431 78.9622 219.255 81.7028C187.769 83.9276 174.256 102.854 150.916 145.511C129.645 184.396 111.057 187.201 93.8588 186.846C58.8487 186.04 46.4675 162.342 44.5602 142.383C43.1702 128.036 47.8576 101.693 75.9174 93.5359C97.6734 87.2163 110.378 96.3732 117.328 100.275C119.074 101.242 121.272 100.662 122.371 98.9849L142.22 67.8385C143.093 66.4843 142.705 64.711 141.315 63.8727C130.97 57.7143 94.5053 38.5622 58.5901 51.0723C21.3172 64.0661 -0.341867 98.5335 0.660267 143.222C1.59775 186.104 33.5691 230.212 92.889 231.599C93.8588 231.599 94.8609 231.631 95.8307 231.631C136.724 231.631 162.974 215.478 187.381 170.821C209.169 130.97 212.175 127.068 222.488 126.327C234.449 126.488 234.675 131.647 251.937 163.051C255.59 169.725 261.733 181.397 262.702 183.203L272.206 199.969C282.616 216.477 296.549 234.791 315.945 230.438C336.343 225.86 337.41 207.675 337.41 183.557L336.375 22.1829V22.2474Z" fill="url(#paint0_linear_188_2146)" fill-opacity="0.1"/>
<defs>
<linearGradient id="paint0_linear_188_2146" x1="0.595614" y1="115.848" x2="337.41" y2="115.848" gradientUnits="userSpaceOnUse">
<stop stop-color="#61C5FF"/>
<stop offset="1" stop-color="#646CF1"/>
</linearGradient>
</defs>
</svg>
