<svg width="87" height="59" viewBox="0 0 87 59" fill="none" xmlns="http://www.w3.org/2000/svg">
<path d="M85.8449 5.66372C85.8449 5.66372 85.8449 5.60627 85.8449 5.57343V5.47493C85.7217 2.42966 83.225 0 80.1535 0H80.1124C77.0244 0.0164166 74.536 2.48711 74.4539 5.54881H74.4374L74.6181 37.4791C74.3882 37.0522 74.1336 36.568 73.8625 36.0426C70.9552 30.4774 65.5349 20.1021 56.0902 20.7998C48.091 21.3662 44.6581 26.1845 38.7285 37.044C33.3246 46.9432 28.6023 47.6574 24.2331 47.5671C15.3387 47.3619 12.1932 41.3288 11.7087 36.2478C11.3556 32.5951 12.5464 25.889 19.675 23.8123C25.2022 22.2034 28.4298 24.5346 30.1955 25.5278C30.639 25.774 31.1975 25.6263 31.4767 25.1995L36.5193 17.2703C36.7411 16.9255 36.6425 16.474 36.2894 16.2606C33.6613 14.6928 24.3973 9.81712 15.273 13.0019C5.80375 16.3099 0.301233 25.0846 0.555827 36.4612C0.793996 47.3783 8.91637 58.6072 23.9867 58.9602C24.2331 58.9602 24.4877 58.9684 24.7341 58.9684C35.1232 58.9684 41.7919 54.856 47.9925 43.4875C53.5279 33.3421 54.2916 32.3489 56.9115 32.1601C59.9502 32.2011 60.0077 33.5145 64.3933 41.5093C65.3213 43.2085 66.8817 46.1799 67.1281 46.6395L69.5427 50.9079C72.1871 55.1105 75.7268 59.7728 80.6545 58.6647C85.8367 57.4991 86.1077 52.8696 86.1077 46.7298L85.8449 5.64731V5.66372Z" fill="url(#paint0_linear_188_1959)"/>
<defs>
<linearGradient id="paint0_linear_188_1959" x1="0.539401" y1="29.4924" x2="86.1077" y2="29.4924" gradientUnits="userSpaceOnUse">
<stop stop-color="#61C5FF"/>
<stop offset="1" stop-color="#646CF1"/>
</linearGradient>
</defs>
</svg>
